<?xml version="1.0" encoding="UTF-8" standalone="no"?>
<!DOCTYPE svg PUBLIC "-//W3C//DTD SVG 1.1//EN" "http://www.w3.org/Graphics/SVG/1.1/DTD/svg11.dtd">
<svg width="100%" height="100%" viewBox="0 0 500 406" version="1.1" xmlns="http://www.w3.org/2000/svg" xmlns:xlink="http://www.w3.org/1999/xlink" xml:space="preserve" xmlns:serif="http://www.serif.com/" style="fill-rule:evenodd;clip-rule:evenodd;stroke-linejoin:round;stroke-miterlimit:2;">
    <g transform="matrix(0.564813,0,0,0.564813,-82.9811,-87.1601)">
        <path d="M605.67,324.953C598,312.269 588.913,298.725 574.68,294.584C558.198,289.787 541.267,299.315 526.905,308.718C483.956,336.838 442.595,367.312 403.012,400.001L403.055,400.494C433.872,398.368 464.689,396.243 495.506,394.118C517.772,392.583 540.802,390.835 560.478,380.302C567.945,376.306 575.223,370.967 583.684,370.595C594.196,370.132 603.361,377.474 610.564,385.144C653.171,430.515 665.501,499.898 713.302,539.76C683.16,465.425 647.17,393.597 605.67,324.953Z" style="fill:rgb(242,242,242);fill-rule:nonzero;"/>
    </g>
    <g transform="matrix(0.564813,0,0,0.564813,-82.9811,-87.1601)">
        <path d="M867.571,709.781C862.859,703.832 860.934,702.438 856.286,696.434C818.443,647.49 782.874,596.892 749.578,544.641C726.963,509.155 705.468,472.987 685.095,436.137C675.396,418.618 665.963,400.962 656.796,383.168C649.682,369.372 642.727,355.492 635.931,341.53C633.988,337.543 632.099,333.537 630.22,329.521C625.792,320.079 621.447,310.591 616.781,301.277C611.464,290.661 604.992,279.532 595.228,272.4C590.785,269.021 585.471,266.976 579.909,266.505C571.961,265.992 564.628,269.274 557.734,272.858C507.295,299.159 460.075,332.134 417.364,369.656C374.544,407.262 336.27,449.748 303.322,496.247C302.314,497.686 299.931,496.311 300.948,494.863C304.954,489.198 309.04,483.593 313.205,478.05C364.993,409.173 428.496,349.941 500.805,303.064C512.97,295.18 525.364,287.666 537.987,280.522C544.349,276.919 550.739,273.362 557.239,270.025C563.61,266.753 570.376,263.81 577.654,263.7C602.424,263.315 615.25,291.367 624.059,310.242C626.828,316.183 629.63,322.105 632.466,328.009C643.182,350.423 654.311,372.632 665.853,394.637C672.976,408.223 680.255,421.729 687.69,435.156C710.828,476.968 735.421,517.934 761.468,558.053C795.974,611.196 830.205,658.142 869.514,707.838C870.596,709.213 868.662,711.175 867.571,709.781Z" style="fill:rgb(228,228,228);fill-rule:nonzero;"/>
    </g>
    <g transform="matrix(0.564813,0,0,0.564813,-82.9811,-87.1601)">
        <path d="M414.916,355.804C413.477,354.2 412.047,352.595 410.598,350.991C399.176,338.359 386.92,325.873 371.234,318.63C363.755,315.068 355.59,313.176 347.307,313.084C338.745,313.112 330.375,315.358 322.464,318.502C318.724,319.996 315.066,321.692 311.463,323.498C307.347,325.57 303.304,327.78 299.28,330.007C291.726,334.187 284.27,338.551 276.912,343.098C262.271,352.146 248.089,361.885 234.366,372.314C227.252,377.723 220.285,383.309 213.464,389.072C207.121,394.426 200.905,399.923 194.818,405.564C193.517,406.765 191.573,404.822 192.875,403.621C194.479,402.126 196.102,400.641 197.724,399.175C202.308,395.031 206.965,390.967 211.695,386.982C220.322,379.703 229.171,372.705 238.244,365.989C252.352,355.538 266.947,345.796 282.027,336.763C289.562,332.253 297.202,327.932 304.945,323.801C307.283,322.554 309.648,321.335 312.041,320.18C317.47,317.441 323.111,315.145 328.909,313.313C337.121,310.657 345.812,309.803 354.385,310.811C362.662,312.015 370.638,314.774 377.89,318.942C393.291,327.55 405.235,340.861 416.86,353.851C418.033,355.171 416.099,357.124 414.916,355.804Z" style="fill:rgb(228,228,228);fill-rule:nonzero;"/>
    </g>
    <g transform="matrix(0.564813,0,0,0.564813,-82.9811,-87.1601)">
        <path d="M730.477,486.711L767.381,473.213L785.704,466.511C791.672,464.328 797.625,461.844 803.794,460.281C809.155,458.75 814.848,458.822 820.168,460.489C824.912,462.245 829.256,464.938 832.939,468.406C836.702,471.871 840.203,475.61 843.414,479.592C847.403,484.387 851.333,489.231 855.282,494.059C871.576,513.987 887.763,534.001 903.845,554.101C919.925,574.201 935.899,594.386 951.764,614.657C967.669,634.977 983.464,655.382 999.15,675.873C1001.07,678.383 1002.99,680.894 1004.91,683.407C1005.97,684.795 1008.36,683.426 1007.28,682.019C991.483,661.322 975.571,640.711 959.549,620.184C943.488,599.608 927.316,579.119 911.033,558.718C894.75,538.317 878.357,518.005 861.854,497.781C857.743,492.742 853.625,487.709 849.5,482.682C846.02,478.441 842.58,474.155 838.764,470.208C831.758,462.963 823.006,456.56 812.529,456.386C806.369,456.284 800.408,458.239 794.685,460.309C788.516,462.541 782.361,464.815 776.199,467.068L739.036,480.661L729.746,484.059C728.097,484.662 728.809,487.321 730.477,486.711L730.477,486.711Z" style="fill:rgb(228,228,228);fill-rule:nonzero;"/>
    </g>
    <g transform="matrix(0.564813,0,0,0.564813,-82.9811,-87.1601)">
        <path d="M366.377,334.526C347.623,324.887 323.606,326.775 306.372,338.817C339.244,344.489 371.757,352.077 403.743,361.543C390.46,353.759 380.07,341.563 366.377,334.526Z" style="fill:rgb(242,242,242);fill-rule:nonzero;"/>
    </g>
    <g transform="matrix(0.564813,0,0,0.564813,-82.9811,-87.1601)">
        <path d="M306.188,338.784L302.577,341.719C303.799,340.692 305.068,339.729 306.372,338.817C306.311,338.807 306.249,338.795 306.188,338.784Z" style="fill:rgb(242,242,242);fill-rule:nonzero;"/>
    </g>
    <g transform="matrix(0.564813,0,0,0.564813,-82.9811,-87.1601)">
        <path d="M831.549,486.846C827.916,482.424 823.989,477.794 818.555,475.997L813.482,476.197C852.099,544.435 904.258,604.064 966.749,651.418C921.683,596.561 876.616,541.703 831.549,486.846Z" style="fill:rgb(242,242,242);fill-rule:nonzero;"/>
    </g>
    <g transform="matrix(0.564813,0,0,0.564813,-82.9811,-87.1601)">
        <path d="M516.084,450.367C518.431,458.894 523.722,466.321 531.015,471.325C533.835,473.245 537.172,475.087 538.137,478.36C538.644,480.445 538.331,482.648 537.263,484.51C536.196,486.348 534.899,488.042 533.402,489.551L533.265,490.063C526.267,485.916 519.609,480.67 515.743,473.512C511.877,466.354 511.337,456.973 516.084,450.366" style="fill:rgb(242,242,242);fill-rule:nonzero;"/>
    </g>
    <g transform="matrix(0.564813,0,0,0.564813,-82.9811,-87.1601)">
        <path d="M749.084,653.367C751.431,661.894 756.722,669.321 764.015,674.325C766.835,676.245 770.172,678.087 771.137,681.36C771.644,683.445 771.331,685.648 770.263,687.51C769.196,689.348 767.899,691.042 766.402,692.551L766.265,693.063C759.267,688.916 752.609,683.67 748.743,676.512C744.877,669.354 744.337,659.973 749.084,653.366" style="fill:rgb(242,242,242);fill-rule:nonzero;"/>
    </g>
    <g transform="matrix(0.564813,0,0,0.564813,-82.9811,-87.1601)">
        <path d="M284.084,639.367C286.431,647.894 291.722,655.321 299.015,660.325C301.835,662.245 305.172,664.087 306.137,667.36C306.644,669.445 306.331,671.648 305.263,673.51C304.196,675.348 302.899,677.042 301.402,678.551L301.265,679.063C294.267,674.916 287.609,669.67 283.743,662.512C279.877,655.354 279.337,645.973 284.084,639.366" style="fill:rgb(242,242,242);fill-rule:nonzero;"/>
    </g>
    <g transform="matrix(0.564813,0,0,0.564813,13,5.70983)">
        <circle cx="649.249" cy="51" r="51" style="fill:rgb(255,165,59);"/>
    </g>
    <g transform="matrix(0.564813,0,0,0.564813,-82.9811,-87.1601)">
        <path d="M911.219,176.296C886.502,172.955 858.283,186.315 851.877,210.42C848.715,202.025 840.637,196.436 831.667,196.436C821.89,196.436 813.275,203.075 810.784,212.529L813.613,214.555C866.579,226.009 921.412,225.761 974.272,213.829C957.079,195.76 935.935,179.637 911.219,176.296Z" style="fill:rgb(240,240,240);fill-rule:nonzero;"/>
    </g>
    <g transform="matrix(0.564813,0,0,0.564813,-82.9811,-87.1601)">
        <path d="M805.219,244.296C780.502,240.955 752.283,254.315 745.877,278.42C742.715,270.025 734.637,264.436 725.667,264.436C715.89,264.436 707.275,271.075 704.784,280.529L707.613,282.555C760.579,294.009 815.412,293.761 868.272,281.829C851.079,263.76 829.935,247.637 805.219,244.296Z" style="fill:rgb(240,240,240);fill-rule:nonzero;"/>
    </g>
    <g transform="matrix(0.564813,0,0,0.564813,-82.9811,-87.1601)">
        <path d="M1020.95,257.154C1020.84,257.154 1020.74,257.139 1020.64,257.107C756.237,173.489 523.199,184.424 374.264,208.321C353.995,211.572 333.673,215.327 313.86,219.482C308.802,220.542 303.554,221.678 298.263,222.86C291.945,224.268 285.71,225.717 279.731,227.166C277.149,227.777 274.618,228.393 272.136,229.015C268.378,229.942 264.565,230.909 260.477,231.972C255.909,233.149 251.268,234.385 246.679,235.643C246.663,235.649 246.645,235.654 246.628,235.658L246.629,235.659C241.446,237.074 236.291,238.53 231.305,239.984C228.607,240.764 226.002,241.532 223.506,242.291C223.227,242.368 222.98,242.442 222.73,242.518L222.194,242.682C221.883,242.776 221.576,242.869 221.27,242.957L221.25,242.963L221.251,242.964L220.439,243.216C219.471,243.509 218.527,243.795 217.598,244.08C193.053,251.646 179.56,257.029 179.427,257.082C179.309,257.129 179.182,257.154 179.055,257.154C178.506,257.154 178.055,256.702 178.055,256.154C178.055,255.746 178.304,255.377 178.683,255.226C178.817,255.173 192.376,249.763 217.01,242.168C217.943,241.882 218.889,241.596 219.86,241.302L220.614,241.067C220.64,241.058 220.666,241.05 220.692,241.042C220.997,240.955 221.302,240.862 221.612,240.769L222.149,240.605C222.416,240.524 222.68,240.444 222.95,240.37C225.428,239.616 228.043,238.846 230.748,238.063C235.735,236.608 240.895,235.152 246.082,233.735C246.098,233.729 246.114,233.726 246.131,233.721L246.131,233.72C250.735,232.457 255.393,231.217 259.976,230.035C264.07,228.972 267.891,228.003 271.655,227.073C274.147,226.453 276.684,225.836 279.265,225.221C285.25,223.77 291.498,222.318 297.828,220.908C303.127,219.725 308.384,218.586 313.45,217.525C333.293,213.363 353.648,209.603 373.947,206.347C523.096,182.415 756.467,171.463 1021.25,255.201C1021.66,255.332 1021.95,255.719 1021.95,256.154C1021.95,256.703 1021.49,257.154 1020.95,257.154Z" style="fill:rgb(204,204,204);fill-rule:nonzero;"/>
    </g>
    <g transform="matrix(0.564813,0,0,0.564813,-82.9811,-87.1601)">
        <path d="M432.923,584.266C432.577,583.254 431.994,582.338 431.223,581.596C430.938,581.332 430.631,581.094 430.303,580.886C427.693,579.146 423.793,578.756 421.313,580.886C421.063,581.103 420.832,581.34 420.623,581.596C419.883,582.506 419.123,583.396 418.343,584.266C417.063,585.726 415.753,587.136 414.383,588.506C413.993,588.886 413.603,589.276 413.203,589.656C412.973,589.886 412.743,590.106 412.513,590.326C411.633,591.166 410.733,591.976 409.823,592.776C409.343,593.206 408.863,593.626 408.373,594.036C407.643,594.646 406.913,595.256 406.173,595.846C406.103,595.896 406.033,595.946 405.963,596.006C405.943,596.016 405.933,596.036 405.913,596.046C405.903,596.046 405.893,596.046 405.883,596.066C405.856,596.077 405.832,596.094 405.813,596.116C405.593,596.266 405.443,596.366 405.333,596.456C405.373,596.436 405.413,596.406 405.453,596.386C405.273,596.526 405.083,596.666 404.903,596.806C403.153,598.096 401.363,599.336 399.533,600.496C395.005,603.394 390.25,605.919 385.313,608.046C384.983,608.176 384.643,608.316 384.303,608.446C371.378,613.741 357.356,615.808 343.453,614.466C342.033,614.356 340.613,614.206 339.193,614.016C337.553,613.776 335.923,613.486 334.303,613.156C328.136,611.925 322.101,610.104 316.283,607.716C309.005,604.383 302.083,600.323 295.623,595.596C294.623,594.886 293.613,594.176 292.603,593.486C293.753,590.666 294.883,587.846 295.983,585.006C296.533,583.636 297.063,582.266 297.583,580.886C301.673,570.256 305.513,559.526 309.193,548.756C312.913,537.846 316.423,526.873 319.723,515.836C320.063,514.716 320.393,513.596 320.713,512.476C322.443,506.646 324.103,500.803 325.693,494.946C325.843,494.376 326.003,493.816 326.143,493.246C326.603,491.566 327.053,489.886 327.493,488.206C328.493,484.416 326.233,479.886 322.253,478.976C318.294,477.961 314.187,480.295 313.033,484.216C312.603,485.836 312.173,487.446 311.733,489.066C309.623,496.896 307.403,504.699 305.073,512.476C304.733,513.596 304.393,514.716 304.053,515.836C298.913,532.776 293.27,549.546 287.123,566.146C286.383,568.156 285.633,570.159 284.873,572.156C284.503,573.136 284.133,574.116 283.753,575.096C283.023,577.026 282.273,578.956 281.523,580.886C281.093,582.016 280.653,583.146 280.213,584.266C279.923,584.976 279.643,585.686 279.363,586.386C276.512,585.362 273.558,584.651 270.553,584.266L270.073,584.206C267.744,583.926 265.388,583.946 263.063,584.266C256.024,585.087 249.703,588.996 245.823,594.926C241.053,602.436 241.113,613.176 247.803,619.556C254.693,626.126 265.123,626.076 273.233,621.966C277.531,619.641 281.155,616.244 283.753,612.106C284.749,610.606 285.663,609.054 286.493,607.456C286.703,607.596 286.913,607.736 287.123,607.886C287.923,608.446 288.723,609.016 289.513,609.576C294.116,612.911 298.967,615.889 304.023,618.486C314.895,623.891 326.598,627.43 338.643,628.956C338.913,628.986 339.173,629.026 339.443,629.056C340.773,629.226 342.113,629.356 343.453,629.466C362.673,630.914 381.923,626.98 399.033,618.106C400.483,617.356 401.92,616.569 403.343,615.746C405.553,614.466 407.713,613.106 409.823,611.666C410.973,610.886 412.093,610.096 413.203,609.266C418.054,605.693 422.575,601.694 426.713,597.316C428.283,595.666 429.786,593.963 431.223,592.206C432.581,590.769 433.365,588.882 433.423,586.906C433.415,586.003 433.246,585.109 432.923,584.266ZM267.333,608.086C267.543,607.936 267.753,607.776 267.953,607.616C267.893,607.766 267.603,607.936 267.333,608.086L267.333,608.086ZM270.543,604.856C270.313,605.116 270.103,605.376 269.873,605.636C269.173,606.419 268.422,607.154 267.623,607.836C267.513,607.936 267.393,608.036 267.273,608.126C267.273,608.126 267.273,608.126 267.273,608.126C267.267,608.126 267.263,608.13 267.263,608.136C267.263,608.136 267.263,608.136 267.263,608.136C267.119,608.201 266.978,608.274 266.843,608.356C266.413,608.616 265.973,608.856 265.523,609.076C264.642,609.4 263.736,609.651 262.813,609.826C262.104,609.878 261.393,609.884 260.683,609.846L260.663,609.846C260.173,609.737 259.689,609.604 259.213,609.446C258.973,609.326 258.743,609.186 258.513,609.046C258.423,608.966 258.343,608.886 258.293,608.836C258.195,608.747 258.105,608.65 258.023,608.546C258.023,608.546 258.023,608.546 258.023,608.546C258.023,608.54 258.019,608.536 258.013,608.536C258.013,608.536 258.013,608.536 258.013,608.536C257.903,608.336 257.783,608.136 257.673,607.936C257.667,607.931 257.664,607.924 257.663,607.916C257.583,607.666 257.513,607.406 257.453,607.146C257.431,606.689 257.435,606.232 257.463,605.776C257.597,605.137 257.778,604.509 258.003,603.896C258.206,603.462 258.436,603.041 258.693,602.636C258.713,602.596 258.813,602.436 258.923,602.256C258.933,602.246 258.933,602.246 258.933,602.236C259.083,602.066 259.233,601.886 259.393,601.726C259.663,601.426 259.953,601.166 260.243,600.896C260.807,600.527 261.391,600.19 261.993,599.886C262.948,599.547 263.927,599.283 264.923,599.096C266.391,598.979 267.867,598.993 269.333,599.136C270.722,599.377 272.092,599.714 273.433,600.146C272.62,601.724 271.694,603.241 270.663,604.686C270.623,604.746 270.583,604.806 270.543,604.856L270.543,604.856ZM259.423,601.566C259.335,601.707 259.231,601.838 259.113,601.956C259.192,601.809 259.297,601.677 259.423,601.566Z" style="fill:rgb(63,61,86);fill-rule:nonzero;"/>
    </g>
    <g transform="matrix(0.564813,0,0,0.564813,-82.9811,-87.1601)">
        <path d="M402.863,482.136C402.773,485.276 402.683,488.416 402.593,491.556C402.403,498.526 402.206,505.499 402.003,512.476C401.793,520.326 401.573,528.173 401.343,536.016C401.233,540.066 401.12,544.116 401.003,548.166C400.693,559.076 400.386,569.983 400.083,580.886C400.053,582.016 400.013,583.136 399.983,584.266C399.833,589.676 399.683,595.086 399.533,600.496C399.363,606.366 399.196,612.236 399.033,618.106C398.913,622.506 398.79,626.909 398.663,631.316C397.763,663.246 396.863,695.176 395.963,727.106C395.885,731.19 392.547,734.527 388.463,734.606C384.361,734.573 380.996,731.208 380.963,727.106C381.463,709.146 381.97,691.186 382.483,673.226C382.933,656.986 383.39,640.746 383.853,624.506C384.003,619.156 384.153,613.803 384.303,608.446C384.533,600.386 384.76,592.326 384.983,584.266C385.013,583.136 385.053,582.016 385.083,580.886C385.103,579.896 385.133,578.916 385.163,577.926C385.603,562.276 386.043,546.623 386.483,530.966C386.663,524.806 386.836,518.643 387.003,512.476C387.203,505.446 387.403,498.419 387.603,491.396C387.693,488.306 387.773,485.226 387.863,482.136C387.942,478.052 391.279,474.715 395.363,474.636C399.465,474.669 402.83,478.034 402.863,482.136Z" style="fill:rgb(63,61,86);fill-rule:nonzero;"/>
    </g>
    <g transform="matrix(0.564813,0,0,0.564813,-82.9811,-87.1601)">
        <path d="M814.291,484.217C806.427,513.997 797.027,543.35 786.13,572.158C783.123,580.105 780.047,588.035 776.759,595.87L777.515,594.079C776.047,597.811 774.172,601.369 771.925,604.691C771.772,604.905 771.617,605.117 771.458,605.327C772.235,604.333 772.383,604.137 771.901,604.738C771.647,605.039 771.396,605.34 771.133,605.633C770.434,606.417 769.682,607.153 768.885,607.837C768.684,608.008 768.48,608.176 768.273,608.341L769.21,607.612C769.102,607.869 768.338,608.209 768.1,608.355C767.329,608.82 766.526,609.227 765.695,609.573L767.487,608.817C766.126,609.366 764.706,609.755 763.255,609.978L765.249,609.71C763.824,609.907 762.38,609.922 760.951,609.756L762.945,610.024C761.776,609.863 760.632,609.555 759.54,609.107L761.332,609.863C760.749,609.609 760.188,609.31 759.653,608.967C759.382,608.79 758.548,608.158 759.638,608.991C760.771,609.857 759.784,609.066 759.55,608.836C759.356,608.644 759.181,608.436 758.991,608.241C758.109,607.336 759.987,609.797 759.388,608.739C759.067,608.209 758.774,607.663 758.509,607.102L759.265,608.894C758.921,608.041 758.677,607.152 758.537,606.243L758.805,608.236C758.662,607.106 758.661,605.962 758.802,604.832L758.534,606.825C758.718,605.563 759.052,604.328 759.529,603.145L758.773,604.937C759.106,604.141 759.5,603.373 759.951,602.638C760.159,602.259 760.403,601.9 760.68,601.567C760.729,601.583 759.411,603.08 760.11,602.324C760.293,602.126 760.464,601.918 760.649,601.722C760.945,601.408 761.263,601.121 761.575,600.824C762.619,599.83 760.113,601.79 761.318,601.003C762.192,600.429 763.111,599.927 764.067,599.504L762.276,600.26C763.877,599.602 765.556,599.152 767.271,598.92L765.277,599.188C767.425,598.941 769.596,598.967 771.738,599.264L769.744,598.997C772.456,599.408 775.107,600.153 777.636,601.216L775.844,600.46C781.234,602.774 786.007,606.21 790.772,609.578C795.375,612.911 800.224,615.889 805.278,618.485C816.151,623.891 827.855,627.431 839.901,628.959C874.97,633.254 909.911,619.384 932.486,592.207C933.843,590.768 934.625,588.88 934.683,586.903C934.669,584.918 933.88,583.014 932.486,581.6C929.735,579.074 924.537,578.361 921.88,581.6C919.361,584.675 916.654,587.589 913.773,590.327C912.428,591.603 911.047,592.84 909.631,594.037C908.822,594.721 908.001,595.391 907.17,596.048C906.776,596.359 905.551,597.186 907.433,595.851C907.002,596.157 906.588,596.491 906.162,596.805C899.864,601.448 893.04,605.33 885.83,608.37L887.622,607.614C879.886,610.859 871.761,613.085 863.451,614.237L865.444,613.969C856.896,615.093 848.236,615.08 839.691,613.931L841.685,614.199C833.141,613.025 824.786,610.749 816.828,607.428L818.619,608.184C810.939,604.786 803.651,600.565 796.883,595.593C793.36,592.985 789.645,590.647 785.77,588.599C781.255,586.293 776.366,584.807 771.332,584.211C761.893,583.1 752.275,586.776 747.086,594.931C742.31,602.436 742.372,613.175 749.059,619.556C755.947,626.129 766.378,626.073 774.495,621.962C782.312,618.002 787.008,609.776 790.31,602.02C797.741,584.565 804.32,566.706 810.45,548.757C816.514,530.999 822.014,513.061 826.948,494.944C827.56,492.7 828.162,490.453 828.755,488.205C829.756,484.416 827.494,479.885 823.517,478.979C819.557,477.96 815.445,480.294 814.291,484.217L814.291,484.217Z" style="fill:rgb(63,61,86);fill-rule:nonzero;"/>
    </g>
    <g transform="matrix(0.564813,0,0,0.564813,-82.9811,-87.1601)">
        <path d="M889.124,482.136L886.424,577.929L883.739,673.223L882.22,727.106C882.255,731.208 885.619,734.572 889.72,734.606C893.804,734.528 897.141,731.19 897.22,727.106L899.92,631.313L902.605,536.019L904.124,482.136C904.089,478.034 900.725,474.67 896.624,474.636C892.54,474.714 889.203,478.052 889.124,482.136Z" style="fill:rgb(63,61,86);fill-rule:nonzero;"/>
    </g>
    <g transform="matrix(0.564813,0,0,0.564813,-82.9811,-87.1601)">
        <path d="M629.526,700.361L631.855,700.361L631.855,594.319L686.183,594.319L686.183,591.997L631.855,591.997L631.855,547.252L673.81,547.252C673.195,546.47 672.562,545.698 671.911,544.935L631.855,544.935L631.855,515.382C631.084,515.054 630.308,514.737 629.526,514.439L629.526,544.935L583.874,544.935L583.874,507.07C583.091,507.106 582.321,507.16 581.545,507.225L581.545,544.935L545.125,544.935L545.125,516.684C544.342,517.03 543.572,517.395 542.808,517.777L542.808,544.935L512.192,544.935L512.192,547.252L542.808,547.252L542.808,591.997L512.192,591.997L512.192,594.319L542.808,594.319L542.808,700.361L545.125,700.361L545.125,594.319C545.127,594.319 545.13,594.319 545.132,594.319C565.107,594.319 581.545,610.757 581.545,630.732C581.545,630.735 581.545,630.737 581.545,630.739L581.545,700.361L583.874,700.361L583.874,594.319L629.526,594.319L629.526,700.361ZM545.125,591.997L545.125,547.252L581.545,547.252L581.545,591.997L545.125,591.997ZM583.874,591.997L583.874,547.252L584.787,547.252C609.331,547.254 629.526,567.45 629.526,591.993C629.526,591.994 629.526,591.996 629.526,591.997L583.874,591.997Z" style="fill-opacity:0.2;fill-rule:nonzero;"/>
    </g>
    <g transform="matrix(0.564813,0,0,0.564813,-82.9811,-87.1601)">
        <path d="M615.303,668.566C612.372,681.643 605.346,693.45 595.253,702.266C594.513,702.906 593.773,703.526 593.003,704.136C591.133,704.306 589.276,704.479 587.433,704.656C585.903,704.796 584.393,704.946 582.893,705.086L582.623,705.116L582.433,703.476L581.673,696.836C575.705,687.092 574.489,675.142 578.373,664.396C581.013,657.276 585.793,650.986 590.493,644.746C596.983,636.126 603.293,627.606 603.523,617.096C606.716,621.183 609.372,625.663 611.423,630.426C609.487,631.337 607.748,632.618 606.303,634.196C605.893,634.646 605.483,635.276 605.763,635.816C606.003,636.276 606.603,636.386 607.123,636.446C608.373,636.576 609.633,636.706 610.883,636.836C611.883,636.946 612.883,637.046 613.883,637.156C615.093,641.127 615.913,645.206 616.333,649.336C617.007,655.76 616.659,662.251 615.303,668.566Z" style="fill:rgb(63,61,86);fill-rule:nonzero;"/>
    </g>
    <g transform="matrix(0.564813,0,0,0.564813,-82.9811,-87.1601)">
        <path d="M648.503,642.356C642.603,646.646 639.153,652.816 636.473,659.616C633.727,660.495 631.255,662.074 629.303,664.196C628.893,664.646 628.483,665.276 628.763,665.816C629.003,666.276 629.603,666.386 630.123,666.446C631.373,666.576 632.633,666.706 633.883,666.836C631.203,674.876 628.743,683.196 624.003,689.986C620.851,694.469 616.742,698.196 611.973,700.896C610.673,701.637 609.331,702.301 607.953,702.886C602.873,703.276 597.89,703.693 593.003,704.136C591.133,704.306 589.276,704.479 587.433,704.656C585.903,704.796 584.393,704.946 582.893,705.086C582.883,704.536 582.883,703.986 582.893,703.436C583.209,688.788 588.601,674.694 598.143,663.576C598.593,663.056 599.053,662.546 599.523,662.036C604.358,656.872 610.044,652.576 616.333,649.336C626.242,644.184 637.35,641.774 648.503,642.356Z" style="fill:rgb(108,99,255);fill-rule:nonzero;"/>
    </g>
    <g transform="matrix(0.564813,0,0,0.564813,-82.9811,-87.1601)">
        <path d="M589.163,699.526L588.013,702.926L587.433,704.656C585.903,704.796 584.393,704.946 582.893,705.086L582.623,705.116C580.963,705.286 579.313,705.456 577.663,705.626C577.233,705.126 576.803,704.616 576.383,704.096C554.797,677.957 558.433,638.715 584.453,616.986C583.133,623.896 584.673,630.516 587.203,637.086C586.933,637.196 586.673,637.306 586.423,637.426C584.487,638.337 582.748,639.618 581.303,641.196C580.893,641.646 580.483,642.276 580.763,642.816C581.003,643.276 581.603,643.386 582.123,643.446C583.373,643.576 584.633,643.706 585.883,643.836C586.883,643.946 587.883,644.046 588.883,644.156C589.353,644.206 589.823,644.256 590.293,644.306C590.363,644.456 590.423,644.596 590.493,644.746C593.343,650.926 596.413,657.136 598.143,663.576C598.577,665.192 598.917,666.831 599.163,668.486C600.722,679.807 597.038,691.244 589.163,699.526Z" style="fill:rgb(108,99,255);fill-rule:nonzero;"/>
    </g>
    <g transform="matrix(0.564813,0,0,0.564813,-82.9811,-87.1601)">
        <path d="M689.821,554.487C681.212,537.694 667.875,523.566 652.189,513.183C636.453,502.815 618.394,496.5 599.626,494.803C597.166,494.579 594.7,494.449 592.227,494.41C589.306,494.367 545.361,507.042 530.64,517.392C515.928,527.616 503.824,541.157 495.307,556.919C486.806,572.767 482.624,590.577 483.182,608.553C483.91,626.637 488.952,644.288 497.884,660.029C506.695,675.718 519.207,689.021 534.329,698.774C549.667,708.561 565.074,734.51 583.183,735.426C601.429,736.349 622.237,711.871 638.878,704.439C655.518,696.945 669.907,685.219 680.604,670.434C690.999,655.944 697.725,639.146 700.203,621.486C702.776,603.403 701.577,584.753 695.402,567.47C693.817,563.029 691.953,558.692 689.821,554.487C688.042,550.981 682.825,549.691 679.56,551.796C676.086,553.935 674.892,558.489 676.869,562.057C677.914,564.116 678.886,566.208 679.785,568.335L679.029,566.543C682.428,574.718 684.74,583.305 685.905,592.082L685.637,590.088C686.876,599.61 686.854,609.254 685.571,618.77L685.839,616.776C684.542,626.292 682.002,635.596 678.284,644.451L679.04,642.659C677.127,647.177 674.898,651.554 672.369,655.757C671.087,657.881 669.726,659.955 668.288,661.979C667.656,662.867 667.005,663.74 666.349,664.61C665.493,665.746 667.516,663.127 666.631,664.241C666.481,664.43 666.331,664.621 666.18,664.81C665.725,665.378 665.265,665.94 664.798,666.498C661.68,670.217 658.277,673.689 654.621,676.881C653.711,677.676 652.785,678.453 651.843,679.212C651.375,679.591 650.911,679.985 650.423,680.337C650.441,680.324 652.002,679.138 651.078,679.826C650.788,680.043 650.5,680.262 650.209,680.478C648.269,681.915 646.277,683.279 644.234,684.57C639.531,687.533 634.596,690.113 629.479,692.283L631.27,691.527C622.442,695.243 613.164,697.782 603.674,699.079L605.667,698.811C596.182,700.093 586.568,700.11 577.078,698.861L579.072,699.129C570.447,697.971 562.01,695.69 553.977,692.345L555.768,693.101C551.115,691.136 546.628,688.798 542.352,686.11C540.236,684.776 538.175,683.361 536.169,681.862C535.883,681.649 535.599,681.432 535.314,681.217C534.398,680.526 535.971,681.727 535.984,681.735C535.452,681.353 534.939,680.944 534.449,680.51C533.48,679.721 532.526,678.914 531.588,678.088C527.832,674.781 524.325,671.201 521.094,667.379C520.286,666.423 519.494,665.453 518.72,664.468C518.385,664.042 517.774,663.178 519.125,664.997C518.947,664.758 518.763,664.523 518.583,664.285C518.152,663.713 517.727,663.137 517.307,662.557C515.839,660.525 514.443,658.443 513.119,656.311C510.129,651.485 507.519,646.434 505.314,641.203L506.07,642.994C502.461,634.408 499.993,625.385 498.73,616.157L498.998,618.151C497.857,609.645 497.841,601.026 498.949,592.515L498.681,594.509C499.817,586.268 502.035,578.212 505.276,570.55L504.52,572.342C506.559,567.545 508.965,562.913 511.715,558.485C513.092,556.27 514.551,554.108 516.093,552.001C516.443,551.522 516.797,551.046 517.155,550.573C517.479,550.145 518.37,549.079 516.85,550.961C516.999,550.777 517.142,550.587 517.289,550.401C518.135,549.329 519.002,548.274 519.889,547.236C523.247,543.305 526.884,539.622 530.772,536.215C531.755,535.354 532.753,534.511 533.767,533.686C534.227,533.311 534.691,532.94 535.158,532.573C535.344,532.426 535.533,532.282 535.719,532.135C533.722,533.724 535.164,532.567 535.618,532.227C537.707,530.662 539.852,529.175 542.053,527.766C546.946,524.637 552.093,521.925 557.44,519.658L555.648,520.414C563.408,517.156 597.789,509.465 604.042,510.305L602.048,510.037C611.239,511.32 620.222,513.802 628.768,517.419L626.976,516.663C631.307,518.502 635.516,520.616 639.577,522.992C641.606,524.182 643.595,525.436 645.544,526.755C646.466,527.379 647.379,528.017 648.282,528.67C648.733,528.996 649.182,529.325 649.628,529.659C649.876,529.844 650.122,530.031 650.37,530.217C651.409,530.996 648.938,529.088 650.028,529.95C653.674,532.814 657.136,535.905 660.395,539.203C661.996,540.833 663.542,542.515 665.032,544.248C665.797,545.138 666.546,546.04 667.279,546.956C667.643,547.411 668.884,549.057 667.363,547.04C667.735,547.533 668.111,548.023 668.478,548.519C671.638,552.797 674.444,557.324 676.869,562.057C678.662,565.555 683.856,566.859 687.131,564.748C690.606,562.61 691.8,558.055 689.821,554.487Z" style="fill:rgb(63,61,86);fill-rule:nonzero;"/>
    </g>
    <g transform="matrix(0.564813,0,0,0.564813,-82.9811,-87.1601)">
        <path d="M602.431,676.882C602.373,676.884 602.315,676.886 602.258,676.886C600.184,676.886 598.478,675.179 598.478,673.106C598.478,672.052 598.918,671.045 599.692,670.33C599.787,669.951 599.855,669.679 599.951,669.301C599.917,669.218 599.882,669.136 599.848,669.053C596.368,660.756 574.163,683.887 573.203,691.685C572.78,695.132 572.958,698.627 573.73,702.013C566.538,686.323 562.802,669.269 562.778,652.01C562.777,647.679 563.017,643.351 563.499,639.047C563.897,635.518 564.45,632.014 565.156,628.536C569.011,609.664 577.289,591.972 589.307,576.92C596.181,577.303 602.205,576.256 602.787,562.934C602.891,560.565 604.648,558.513 605.036,556.178C604.379,556.264 603.712,556.318 603.056,556.361C602.852,556.372 602.637,556.383 602.432,556.393L602.355,556.397C602.299,556.399 602.243,556.401 602.187,556.401C600.133,556.401 598.442,554.71 598.442,552.656C598.442,551.797 598.738,550.963 599.279,550.296C599.563,549.947 599.846,549.599 600.13,549.25C600.56,548.712 601.001,548.185 601.432,547.647C601.481,547.596 601.528,547.542 601.571,547.486C602.066,546.873 602.561,546.27 603.056,545.657C602.153,544.255 600.938,543.081 599.506,542.225C594.547,539.321 587.705,541.332 584.122,545.818C580.529,550.304 579.851,556.598 581.099,562.203C582.326,566.972 584.356,571.498 587.102,575.586C586.833,575.93 586.553,576.263 586.284,576.608C581.368,582.929 577.083,589.718 573.491,596.876C574.507,588.937 562.079,560.268 557.273,554.195C551.5,546.901 539.662,550.084 538.645,559.331C538.635,559.42 538.625,559.51 538.616,559.599C539.33,560.002 540.029,560.43 540.713,560.882C542.135,561.832 542.991,563.434 542.991,565.145C542.991,567.664 541.135,569.828 538.645,570.212L538.541,570.228C528.985,583.872 559.618,619.383 567.286,611.41C563.677,621.637 561.413,632.291 560.552,643.102C560.064,649.481 560.093,655.888 560.638,662.262L560.605,662.036C558.902,648.154 529.674,627.514 521.139,629.233C516.222,630.223 511.379,629.998 512.126,634.958C512.138,635.037 512.15,635.116 512.162,635.195C513.487,635.735 514.777,636.356 516.024,637.056C516.738,637.459 517.437,637.887 518.121,638.339C519.543,639.289 520.4,640.891 520.4,642.602C520.4,645.121 518.543,647.285 516.054,647.669L515.949,647.685C515.874,647.696 515.809,647.707 515.734,647.718C511.384,662.684 543.641,686.838 563.252,679.152L563.262,679.152C565.206,687.597 568.022,695.817 571.664,703.68L601.679,703.68C601.787,703.347 601.883,703.002 601.98,702.669C599.202,702.844 596.413,702.677 593.675,702.174C595.902,699.442 598.129,696.688 600.356,693.955C600.405,693.904 600.452,693.85 600.496,693.794C601.625,692.395 602.766,691.007 603.895,689.609L603.896,689.607C603.956,685.32 603.464,681.044 602.432,676.882L602.431,676.882ZM568.06,609.269L568.076,609.247L568.06,609.29L568.06,609.269ZM561.412,669.201L561.154,668.62C561.165,668.201 561.165,667.781 561.154,667.351C561.154,667.232 561.132,667.114 561.132,666.996C561.229,667.738 561.315,668.48 561.423,669.223L561.412,669.201Z" style="fill:rgb(63,61,86);fill-rule:nonzero;"/>
    </g>
    <g transform="matrix(0.564813,0,0,0.564813,13,5.70983)">
        <circle cx="95.249" cy="439" r="11" style="fill:rgb(63,61,86);"/>
    </g>
    <g transform="matrix(0.564813,0,0,0.564813,13,5.70983)">
        <circle cx="227.249" cy="559" r="11" style="fill:rgb(63,61,86);"/>
    </g>
    <g transform="matrix(0.564813,0,0,0.564813,13,5.70983)">
        <circle cx="728.249" cy="559" r="11" style="fill:rgb(63,61,86);"/>
    </g>
    <g transform="matrix(0.564813,0,0,0.564813,13,5.70983)">
        <circle cx="755.249" cy="419" r="11" style="fill:rgb(63,61,86);"/>
    </g>
    <g transform="matrix(0.564813,0,0,0.564813,13,5.70983)">
        <circle cx="723.249" cy="317" r="11" style="fill:rgb(63,61,86);"/>
    </g>
    <g transform="matrix(0.564813,0,0,0.564813,-82.9811,-87.1601)">
        <path d="M434.183,583.426C434.169,589.423 429.231,594.349 423.234,594.349C417.228,594.349 412.285,589.407 412.285,583.4C412.285,577.394 417.228,572.451 423.234,572.451C428.438,572.451 432.959,576.162 433.973,581.266C434.114,581.977 434.185,582.701 434.183,583.426Z" style="fill:rgb(63,61,86);fill-rule:nonzero;"/>
    </g>
    <g transform="matrix(0.564813,0,0,0.564813,13,5.70983)">
        <circle cx="484.249" cy="349" r="11" style="fill:rgb(63,61,86);"/>
    </g>
    <g transform="matrix(0.564813,0,0,0.564813,-82.9811,-87.1601)">
        <path d="M545.183,513.426C545.169,519.423 540.231,524.349 534.234,524.349C528.228,524.349 523.285,519.407 523.285,513.4C523.285,507.394 528.228,502.451 534.234,502.451C539.438,502.451 543.959,506.162 544.973,511.266C545.114,511.977 545.185,512.701 545.183,513.426Z" style="fill:rgb(63,61,86);fill-rule:nonzero;"/>
    </g>
    <g transform="matrix(0.564813,0,0,0.564813,-82.9811,-87.1601)">
        <path d="M403.183,481.426C403.169,487.423 398.231,492.349 392.234,492.349C386.228,492.349 381.285,487.407 381.285,481.4C381.285,475.394 386.228,470.451 392.234,470.451C397.438,470.451 401.959,474.162 402.973,479.266C403.114,479.977 403.185,480.701 403.183,481.426Z" style="fill:rgb(63,61,86);fill-rule:nonzero;"/>
    </g>
    <g transform="matrix(0.564813,0,0,0.564813,13,5.70983)">
        <circle cx="599.249" cy="443" r="11" style="fill:rgb(63,61,86);"/>
    </g>
    <g transform="matrix(0.564813,0,0,0.564813,13,5.70983)">
        <circle cx="426.249" cy="338" r="16" style="fill:rgb(63,61,86);"/>
    </g>
    <g transform="matrix(0.564813,0,0,0.564813,-82.9811,-87.1601)">
        <path d="M1028.88,735.267L171.125,735.574C170.472,735.574 169.934,735.036 169.934,734.383C169.934,733.73 170.472,733.193 171.125,733.193C171.125,733.193 1028.88,732.885 1028.88,732.885C1029.53,732.887 1030.06,733.424 1030.06,734.076C1030.06,734.728 1029.53,735.265 1028.88,735.267Z" style="fill:rgb(202,202,202);fill-rule:nonzero;"/>
    </g>
</svg>
