<?xml version="1.0" encoding="UTF-8" standalone="no"?>
<!DOCTYPE svg PUBLIC "-//W3C//DTD SVG 1.1//EN" "http://www.w3.org/Graphics/SVG/1.1/DTD/svg11.dtd">
<svg width="100%" height="100%" viewBox="0 0 952 633" version="1.1" xmlns="http://www.w3.org/2000/svg" xmlns:xlink="http://www.w3.org/1999/xlink" xml:space="preserve" xmlns:serif="http://www.serif.com/" style="fill-rule:evenodd;clip-rule:evenodd;stroke-linejoin:round;stroke-miterlimit:2;">
    <g transform="matrix(1,0,0,1,-124.382,-133.069)">
        <path d="M465.591,496.884C498.19,439.539 560.373,395.507 626.199,399.749C577.656,452.538 549.329,520.843 546.268,592.493C545.187,620.137 546.863,650.996 528.509,671.695C517.088,684.575 499.632,690.812 482.469,692.121C465.304,693.429 448.144,690.328 431.209,687.24L427.101,688.501C425.537,622.556 432.992,554.23 465.591,496.884Z" style="fill:rgb(240,240,240);fill-rule:nonzero;"/>
    </g>
    <g transform="matrix(1,0,0,1,-124.382,-133.069)">
        <path d="M626.297,401.13C577.62,424.563 536.113,463.7 510.633,511.429C505.125,521.749 500.435,532.696 498.389,544.271C496.342,555.851 497.772,566.874 501.727,577.872C505.343,587.927 510.206,597.793 511.315,608.552C512.483,619.892 508.311,630.496 500.8,638.911C491.61,649.208 479.269,655.588 466.983,661.408C453.342,667.87 439.071,674.366 429.41,686.427C428.239,687.888 426.04,685.986 427.209,684.527C444.019,663.544 472.792,659.599 492.745,642.696C502.056,634.809 509.046,624.068 508.604,611.483C508.219,600.477 503.213,590.299 499.463,580.15C495.527,569.493 493.564,558.778 494.975,547.416C496.419,535.794 500.691,524.64 505.912,514.225C517.686,490.738 533.799,469.174 552.257,450.534C573.471,429.108 598.194,411.468 625.356,398.379C627.037,397.569 627.968,400.326 626.297,401.13L626.297,401.13Z" style="fill:white;fill-rule:nonzero;"/>
    </g>
    <g transform="matrix(1,0,0,1,-124.382,-133.069)">
        <path d="M518.097,495.478C502.75,484.256 497.742,463.36 506.336,446.401C507.187,444.735 509.816,445.98 508.963,447.648C500.929,463.43 505.64,482.91 519.997,493.277C521.512,494.374 519.604,496.569 518.097,495.478Z" style="fill:white;fill-rule:nonzero;"/>
    </g>
    <g transform="matrix(1,0,0,1,-124.382,-133.069)">
        <path d="M499.222,573.016C517.915,570.284 534.907,560.599 546.783,545.906C547.958,544.449 550.158,546.351 548.983,547.806C536.597,563.072 518.894,573.115 499.435,575.915C497.58,576.181 497.377,573.28 499.222,573.016L499.222,573.016Z" style="fill:white;fill-rule:nonzero;"/>
    </g>
    <g transform="matrix(1,0,0,1,-124.382,-133.069)">
        <path d="M574.907,432.685C579.874,438.191 587.295,440.836 594.625,439.715C596.476,439.426 596.677,442.327 594.838,442.614C586.737,443.815 578.548,440.916 573.007,434.886C572.428,434.352 572.361,433.448 572.857,432.836C573.38,432.236 574.302,432.168 574.907,432.685Z" style="fill:white;fill-rule:nonzero;"/>
    </g>
    <g transform="matrix(1,0,0,1,-124.382,-133.069)">
        <path d="M757.173,580.652C756.023,580.866 754.872,581.079 753.71,581.315C738.254,584.263 723.062,588.462 708.286,593.871C707.137,594.271 705.978,594.694 704.843,595.126C669.382,608.536 636.718,628.414 608.514,653.748C597.3,663.839 586.869,674.769 577.314,686.443C564.118,702.566 551.092,721.097 533.848,731.609C532.062,732.726 530.207,733.731 528.296,734.619L428.959,693.415C428.78,693.208 428.591,693.023 428.411,692.816L424.369,691.352C424.82,690.715 425.301,690.065 425.752,689.428C426.012,689.058 426.294,688.697 426.554,688.327C426.734,688.083 426.916,687.839 427.065,687.609C427.124,687.527 427.185,687.446 427.235,687.387C427.384,687.157 427.547,686.959 427.686,686.751C430.366,683.108 433.076,679.477 435.817,675.859C435.826,675.836 435.826,675.836 435.858,675.822C456.808,648.306 480.24,622.297 506.875,600.672C507.676,600.021 508.486,599.348 509.333,598.716C521.393,589.035 534.223,580.356 547.697,572.765C555.088,568.632 562.684,564.876 570.455,561.511C590.55,552.856 611.883,547.415 633.669,545.389C677.1,541.356 721.338,551.258 754.649,578.543C755.5,579.241 756.331,579.931 757.173,580.652Z" style="fill:rgb(240,240,240);fill-rule:nonzero;"/>
    </g>
    <g transform="matrix(1,0,0,1,-124.382,-133.069)">
        <path d="M756.427,581.82C703.452,571.223 646.749,577.482 597.668,600.251C587.057,605.174 576.721,611.091 568.119,619.101C559.513,627.114 554.017,636.777 550.553,647.94C547.387,658.145 545.329,668.95 539.737,678.208C533.843,687.966 524.127,693.92 513.064,696.118C499.527,698.806 485.832,696.47 472.518,693.72C457.736,690.667 442.431,687.261 427.455,691.074C425.641,691.536 425.03,688.694 426.842,688.232C452.897,681.599 478.246,695.773 504.354,694.29C516.536,693.598 528.584,689.231 535.809,678.916C542.127,669.897 544.258,658.756 547.375,648.395C550.648,637.516 555.532,627.779 563.499,619.557C571.65,611.147 581.776,604.813 592.215,599.641C615.757,587.976 641.605,580.46 667.565,576.69C697.403,572.354 727.764,573.155 757.332,579.057C759.162,579.423 758.245,582.184 756.427,581.821L756.427,581.82Z" style="fill:white;fill-rule:nonzero;"/>
    </g>
    <g transform="matrix(1,0,0,1,-124.382,-133.069)">
        <path d="M613.231,592.008C607.733,573.808 616.316,554.109 633.389,545.742C635.071,544.925 636.42,547.501 634.736,548.319C618.819,556.083 610.852,574.473 616.073,591.395C616.622,593.183 613.777,593.786 613.231,592.008Z" style="fill:white;fill-rule:nonzero;"/>
    </g>
    <g transform="matrix(1,0,0,1,-124.382,-133.069)">
        <path d="M551.478,642.554C568.048,651.627 587.446,654.125 605.774,649.543C607.59,649.088 608.201,651.93 606.387,652.385C587.306,657.117 567.124,654.477 549.902,644.997C548.261,644.092 549.845,641.654 551.478,642.554Z" style="fill:white;fill-rule:nonzero;"/>
    </g>
    <g transform="matrix(1,0,0,1,-124.382,-133.069)">
        <path d="M696.396,576.075C697.047,583.461 701.38,590.042 707.907,593.559C709.56,594.443 707.973,596.881 706.332,596.003C699.141,592.085 694.348,584.839 693.555,576.689C693.413,575.914 693.904,575.152 694.669,574.961C695.448,574.797 696.225,575.298 696.396,576.075Z" style="fill:white;fill-rule:nonzero;"/>
    </g>
    <g transform="matrix(1,0,0,1,-124.382,-133.069)">
        <path d="M567.941,648.631C554.029,581.364 536.639,558.937 536.639,558.937L529.996,553.785L522.007,547.579L522.045,546.781L520.15,546.137L519.705,545.792L518.976,545.231L518.859,545.357L518.611,545.614L482.459,533.325L436.593,517.746L415.355,490.14C408.348,481.032 397.459,475.721 385.968,475.806L318.139,476.308C308.97,476.376 300.151,479.874 293.429,486.109L248.846,527.463L179.377,560.641L179.26,560.524L178.53,561.045L167.797,566.177L168.24,568.483L161.596,573.277C161.596,573.277 144.206,594.145 130.294,656.736C126.755,672.662 125.013,706.826 124.384,748.924C124.383,749.004 124.382,749.083 124.382,749.162C124.382,757.976 131.633,765.229 140.447,765.231L511.494,765.231L511.494,765.231L557.806,765.231C566.619,765.227 573.87,757.973 573.87,749.16C573.87,749.087 573.869,749.014 573.868,748.941C573.254,703.131 571.513,665.902 567.941,648.631Z" style="fill:rgb(63,61,86);fill-rule:nonzero;"/>
    </g>
    <g transform="matrix(1,0,0,1,-124.382,-133.069)">
        <path d="M615.548,191.732C585.689,191.732 561.118,216.302 561.118,246.162C561.118,276.022 585.689,300.593 615.548,300.593L1021.19,300.593C1051.05,300.593 1075.62,276.022 1075.62,246.162C1075.62,216.302 1051.05,191.732 1021.19,191.732L615.548,191.732Z" style="fill:rgb(229,229,229);fill-rule:nonzero;"/>
    </g>
    <g transform="matrix(1,0,0,1,-124.382,-133.069)">
        <path d="M615.548,202.747C591.732,202.747 572.133,222.346 572.133,246.162C572.133,269.979 591.732,289.577 615.548,289.577L1021.19,289.577C1045,289.577 1064.6,269.979 1064.6,246.162C1064.6,222.346 1045,202.747 1021.19,202.747L615.548,202.747Z" style="fill:white;fill-rule:nonzero;"/>
    </g>
    <circle id="e096411a-cdc3-4e6d-bbd4-4630e1fee17e" cx="238.323" cy="228.392" r="88.863" style="fill:rgb(158,97,106);"/>
    <g transform="matrix(1,0,0,1,-124.382,-133.069)">
        <path d="M339.972,445.973C339.593,445.137 339.214,444.298 338.837,443.457C338.982,443.461 339.126,443.482 339.272,443.486L339.972,445.973Z" style="fill:rgb(47,46,65);fill-rule:nonzero;"/>
    </g>
    <g transform="matrix(1,0,0,1,-124.382,-133.069)">
        <path d="M271.371,276.64C275.866,273.054 281.118,269.755 286.865,269.941C292.611,270.126 298.438,275.316 297.248,280.941C318.945,242.523 365.536,225.053 407.143,239.733C421.425,244.771 435.43,254.852 438.711,269.637C439.553,273.432 439.734,277.594 442.104,280.676C445.092,284.561 450.808,285.44 455.515,284.074C455.563,284.06 455.61,284.046 455.656,284.032C456.093,283.883 456.552,283.807 457.013,283.807C459.317,283.807 461.212,285.702 461.212,288.005C461.212,288.686 461.046,289.356 460.73,289.959L456.689,297.495C461.782,298.631 467.076,298.518 472.117,297.167C472.464,297.076 472.822,297.03 473.181,297.03C475.482,297.03 477.376,298.924 477.376,301.225C477.376,302.113 477.094,302.978 476.571,303.696C463.247,321.99 440.985,333.803 418.268,333.664C402.122,333.566 385.81,328.001 370.096,331.714C351.278,336.161 337.875,353.1 337.875,372.437C337.875,378.671 339.268,384.827 341.953,390.454C337.125,385.174 327.794,386.424 322.856,391.601C317.918,396.778 316.639,404.505 317.137,411.642C317.898,422.558 322.175,432.844 326.683,442.854C288.882,441.664 253.128,415.147 241.094,379.282C229.008,343.267 241.674,300.33 271.371,276.64Z" style="fill:rgb(47,46,65);fill-rule:nonzero;"/>
    </g>
    <path d="M87.464,495.253L112.388,630.86L127.343,632.162L87.464,495.253Z" style="fill-opacity:0.2;fill-rule:nonzero;"/>
    <path d="M362.007,485.026L337.083,630.762L322.128,632.162L362.007,485.026Z" style="fill-opacity:0.2;fill-rule:nonzero;"/>
    <g transform="matrix(1,0,0,1,-124.382,-133.069)">
        <path d="M292.629,231.001C287.851,232.997 282.864,230.81 280.773,225.802C278.65,220.717 280.633,215.555 285.488,213.528C290.344,211.5 295.242,213.692 297.399,218.859C299.524,223.948 297.563,228.941 292.629,231.001ZM283.475,203.519L279.675,205.106C277.718,205.914 275.44,205.078 274.469,203.197L274.281,202.829C270.193,195.456 269.725,186.494 272.897,176.208C275.836,166.981 277.057,160.491 274.602,154.612C271.764,147.815 265.703,145.685 257.974,148.77C254.976,150.022 254.022,150.002 251.663,152.342C250.627,153.382 249.21,153.958 247.742,153.935C246.322,153.918 244.969,153.325 243.995,152.292C242.078,150.259 242.061,147.048 243.958,144.995C247.923,140.844 252.706,137.56 258.004,135.351C274.61,128.416 282.97,138.654 286.796,147.816C290.537,156.777 288.433,165.091 285.051,175.859C282.216,184.806 282.381,191.436 285.601,198.029C285.853,198.569 285.983,199.158 285.983,199.754C285.983,201.397 284.991,202.886 283.475,203.519L283.475,203.519Z" style="fill:rgb(255,165,59);fill-rule:nonzero;"/>
    </g>
    <g transform="matrix(1,0,0,1,-124.382,-133.069)">
        <path d="M705.149,272.122L624.442,272.122C624.437,272.122 624.433,272.122 624.429,272.122C623.362,272.122 622.485,271.244 622.485,270.178C622.485,269.112 623.362,268.234 624.429,268.234C624.433,268.234 624.437,268.234 624.442,268.234L705.149,268.234C706.21,268.241 707.08,269.117 707.08,270.178C707.08,271.239 706.21,272.115 705.149,272.122Z" style="fill:rgb(69,90,100);fill-rule:nonzero;"/>
    </g>
    <g transform="matrix(1,0,0,1,-124.382,-133.069)">
        <path d="M807.53,272.77L726.823,272.77C726.819,272.77 726.815,272.77 726.81,272.77C725.744,272.77 724.866,271.892 724.866,270.826C724.866,269.76 725.744,268.882 726.81,268.882C726.815,268.882 726.819,268.882 726.823,268.882L807.53,268.882C807.535,268.882 807.539,268.882 807.544,268.882C808.61,268.882 809.488,269.76 809.488,270.826C809.488,271.892 808.61,272.77 807.544,272.77C807.539,272.77 807.535,272.77 807.53,272.77Z" style="fill:rgb(69,90,100);fill-rule:nonzero;"/>
    </g>
    <g transform="matrix(1,0,0,1,-124.382,-133.069)">
        <path d="M909.912,273.418L829.205,273.418C828.144,273.411 827.274,272.535 827.274,271.474C827.274,270.413 828.144,269.537 829.205,269.53L909.912,269.53C909.916,269.53 909.921,269.53 909.925,269.53C910.992,269.53 911.869,270.408 911.869,271.474C911.869,272.54 910.992,273.418 909.925,273.418C909.921,273.418 909.916,273.418 909.912,273.418L909.912,273.418Z" style="fill:rgb(69,90,100);fill-rule:nonzero;"/>
    </g>
    <g transform="matrix(1,0,0,1,-124.382,-133.069)">
        <path d="M1012.29,274.066L931.587,274.066C930.525,274.059 929.656,273.183 929.656,272.122C929.656,271.061 930.525,270.185 931.587,270.178L1012.29,270.178C1013.36,270.185 1014.22,271.061 1014.22,272.122C1014.22,273.183 1013.36,274.059 1012.29,274.066Z" style="fill:rgb(69,90,100);fill-rule:nonzero;"/>
    </g>
    <circle cx="540.235" cy="106.162" r="15" style="fill:rgb(255,165,59);"/>
    <circle cx="643.235" cy="106.162" r="15" style="fill:rgb(255,165,59);"/>
    <circle cx="746.235" cy="106.162" r="15" style="fill:rgb(255,165,59);"/>
    <circle cx="849.235" cy="106.162" r="15" style="fill:rgb(255,165,59);"/>
</svg>
