<?xml version="1.0" encoding="UTF-8" standalone="no"?>
<!DOCTYPE svg PUBLIC "-//W3C//DTD SVG 1.1//EN" "http://www.w3.org/Graphics/SVG/1.1/DTD/svg11.dtd">
<svg width="100%" height="100%" viewBox="0 0 656 677" version="1.1" xmlns="http://www.w3.org/2000/svg" xmlns:xlink="http://www.w3.org/1999/xlink" xml:space="preserve" xmlns:serif="http://www.serif.com/" style="fill-rule:evenodd;clip-rule:evenodd;stroke-linejoin:round;stroke-miterlimit:2;">
    <g transform="matrix(0.780358,0,0,0.780358,-142.172,-22.531)">
        <path d="M518.501,268.281L515.523,268.281L515.523,186.711C515.523,160.812 494.212,139.5 468.313,139.5L295.495,139.5C269.596,139.5 248.284,160.812 248.284,186.711L248.284,634.212C248.284,660.111 269.595,681.423 295.495,681.423L468.312,681.423C494.211,681.423 515.523,660.111 515.523,634.212L515.523,326.344L518.501,326.344L518.501,268.281Z" style="fill:rgb(63,61,86);fill-rule:nonzero;"/>
    </g>
    <g transform="matrix(0.780358,0,0,0.780358,-142.172,-22.531)">
        <path d="M470.217,151.783L447.659,151.783C448.478,153.791 448.899,155.94 448.899,158.109C448.899,167.297 441.339,174.858 432.15,174.859L333.145,174.859C323.957,174.858 316.396,167.297 316.396,158.109C316.396,155.94 316.818,153.791 317.637,151.783L296.567,151.783C277.226,151.783 261.311,167.698 261.311,187.039L261.311,633.884C261.311,653.225 277.226,669.14 296.567,669.14L470.217,669.14C489.558,669.14 505.474,653.225 505.474,633.884L505.474,187.039C505.474,167.698 489.559,151.783 470.217,151.783Z" style="fill:white;fill-rule:nonzero;"/>
    </g>
    <g transform="matrix(0.780358,0,0,0.780358,-142.172,-22.531)">
        <path d="M573.892,681.5L192.892,681.5C192.344,681.5 191.892,681.049 191.892,680.5C191.892,679.951 192.344,679.5 192.892,679.5L573.892,679.5C574.441,679.5 574.892,679.951 574.892,680.5C574.892,681.049 574.441,681.5 573.892,681.5Z" style="fill:rgb(203,203,203);fill-rule:nonzero;"/>
    </g>
    <g id="baf12095-0797-4180-a98d-6422936d747a" transform="matrix(0.780358,0,0,0.780358,7.57271,86.3289)">
        <circle cx="191.5" cy="261.234" r="84.446" style="fill:rgb(255,165,59);"/>
    </g>
    <g id="b582f34e-fd02-4670-b1d8-d23f069ed737-3862" transform="matrix(0.780358,0,0,0.780358,-142.172,-22.531)">
        <path d="M375.024,432.947C373.125,432.951 371.275,432.336 369.755,431.196L369.661,431.126L349.815,415.944C347.639,414.276 346.361,411.686 346.361,408.945C346.361,404.107 350.343,400.125 355.181,400.125C357.121,400.125 359.007,400.765 360.547,401.946L373.401,411.803L403.778,372.174C405.445,369.999 408.034,368.722 410.774,368.722C412.713,368.722 414.599,369.362 416.138,370.541L416.14,370.543L415.952,370.805L416.145,370.543C419.979,373.49 420.714,379.066 417.776,382.906L382.047,429.498C380.373,431.672 377.776,432.945 375.032,432.937L375.024,432.947Z" style="fill:white;fill-rule:nonzero;"/>
    </g>
    <g transform="matrix(0.780358,0,0,0.780358,-142.172,-22.531)">
        <path d="M886.137,689.8C887.165,688.139 888.374,686.598 889.743,685.205C890.308,684.619 890.903,684.068 891.517,683.531C896.669,678.946 903.331,676.41 910.227,676.41C923.781,676.41 935.504,686.201 937.919,699.538C942.043,684.286 931.307,669.262 920.513,657.723C909.714,646.187 897.37,633.531 897.432,617.724C897.462,608.929 901.765,601.082 908.261,595.264C908.462,595.088 908.662,594.912 908.867,594.742C916.716,588.014 926.824,584.491 937.155,584.883C956.354,585.912 973.117,598.815 984.759,614.121C1003.5,638.748 1011.71,673.318 998.591,701.352C987.052,726.009 962.442,740.65 937.326,752.421C933.818,754.065 930.318,755.66 926.825,757.204C926.802,757.21 926.777,757.227 926.754,757.233C926.585,757.307 926.417,757.381 926.26,757.457C925.539,757.775 924.818,758.093 924.103,758.407L924.434,758.624L925.467,759.292C925.109,759.076 924.754,758.865 924.396,758.648C924.29,758.583 924.177,758.521 924.071,758.455C911.735,751.053 899.228,743.223 890.706,731.667C881.867,719.67 878.314,702.484 886.137,689.8Z" style="fill:rgb(241,241,241);fill-rule:nonzero;"/>
    </g>
    <g transform="matrix(0.780358,0,0,0.780358,-142.172,-22.531)">
        <path d="M968.44,661.936C971.172,668.15 972.983,674.73 973.816,681.466C974.471,687.473 974.225,693.545 973.085,699.479C970.635,711.673 965.292,723.102 957.507,732.801C951.634,740.165 944.853,746.758 937.326,752.421C933.819,754.065 930.318,755.66 926.825,757.204C926.802,757.21 926.777,757.227 926.754,757.233C926.586,757.307 926.417,757.381 926.26,757.457C925.539,757.775 924.818,758.093 924.103,758.407L924.434,758.624L925.467,759.292C925.108,759.076 924.754,758.865 924.396,758.648C924.29,758.583 924.177,758.521 924.071,758.455C929.575,739.203 925.391,718.43 912.864,702.809C906.652,695.201 898.729,689.169 889.743,685.205C890.308,684.619 890.903,684.068 891.517,683.531C894.978,685.12 898.292,687.013 901.421,689.186C912.606,696.917 921.01,708.05 925.379,720.926C929.28,732.608 929.768,745.165 926.784,757.114C927.403,756.709 928.025,756.294 928.629,755.881C940.121,748.131 950.712,738.823 958.69,727.41C965.57,717.764 969.974,706.573 971.511,694.825C973.04,681.991 969.829,669.371 964.1,657.92C957.773,645.669 949.8,634.341 940.403,624.25C930.965,613.88 920.294,604.705 908.627,596.928C908.085,596.562 907.922,595.824 908.261,595.264C908.386,595.017 908.604,594.829 908.867,594.742C909.137,594.673 909.424,594.731 909.646,594.9C911.086,595.861 912.514,596.83 913.925,597.829C925.674,606.148 936.344,615.895 945.69,626.845C954.721,637.4 962.94,649.126 968.44,661.936Z" style="fill:white;fill-rule:nonzero;"/>
    </g>
    <g id="ae2e9f9a-ed63-4994-961d-af4fbb6f5199" transform="matrix(0.780358,0,0,0.780358,7.57271,86.3289)">
        <circle cx="525.042" cy="21.276" r="17.934" style="fill:rgb(241,241,241);"/>
    </g>
    <g id="b777be60-18da-4893-88a8-55a275d98bc2" transform="matrix(0.780358,0,0,0.780358,7.57271,86.3289)">
        <circle cx="748.042" cy="268.276" r="10.934" style="fill:rgb(241,241,241);"/>
    </g>
    <g id="a703acd2-aa23-4bff-9a86-75b7d9a928c1" transform="matrix(0.780358,0,0,0.780358,7.57271,86.3289)">
        <circle cx="428.042" cy="298.276" r="10.934" style="fill:rgb(241,241,241);"/>
    </g>
    <g transform="matrix(0.780358,0,0,0.780358,-142.172,-22.531)">
        <path d="M626.108,760.5L1007.11,760.5C1007.66,760.5 1008.11,760.049 1008.11,759.5C1008.11,758.951 1007.66,758.5 1007.11,758.5L626.108,758.5C625.559,758.5 625.108,758.951 625.108,759.5C625.108,760.049 625.559,760.5 626.108,760.5Z" style="fill:rgb(203,203,203);fill-rule:nonzero;"/>
    </g>
    <g transform="matrix(0.780358,0,0,0.780358,-142.172,-22.531)">
        <path d="M965.062,236.135C965.157,235.458 965.205,234.775 965.205,234.092C965.205,226.054 958.591,219.439 950.553,219.439C944.551,219.439 939.13,223.127 936.925,228.709L906.008,264.153L915.08,289.49L946.173,248.075C947.61,248.535 949.11,248.769 950.619,248.769C957.884,248.769 964.095,243.336 965.062,236.135Z" style="fill:rgb(255,183,183);fill-rule:nonzero;"/>
    </g>
    <g transform="matrix(0.780358,0,0,0.780358,7.57271,86.3289)">
        <path d="M645.013,234.549L747.642,125.02L733.799,103.012L605.076,211.876L645.013,234.549Z" style="fill:rgb(63,61,86);fill-rule:nonzero;"/>
    </g>
    <g transform="matrix(0.780358,0,0,0.780358,7.57271,86.3289)">
        <circle cx="622.108" cy="132" r="36" style="fill:rgb(47,46,65);"/>
    </g>
    <g transform="matrix(0.780358,0,0,0.780358,-142.172,-22.531)">
        <path d="M816.894,251.163C824.64,243.308 834.015,237.246 844.357,233.404C850.996,230.945 858.221,229.425 865.162,230.822C872.103,232.218 878.666,237.02 880.602,243.83C882.186,249.398 880.551,255.393 878.094,260.635C875.637,265.877 872.356,270.738 870.369,276.175C868.944,280.075 868.214,284.196 868.214,288.349C868.214,307.806 884.225,323.817 903.682,323.817C904.475,323.817 905.267,323.79 906.058,323.737C899.239,324.652 892.953,327.856 886.287,329.562C879.622,331.268 871.754,331.152 866.801,326.377C861.56,321.324 861.455,313.11 861.709,305.834C862.085,295.019 862.462,284.204 862.839,273.389C863.031,267.874 863.195,262.182 861.206,257.034C859.217,251.886 854.49,247.378 848.971,247.425C844.788,247.461 841.086,249.994 837.732,252.493C834.378,254.992 830.828,257.658 826.662,258.029C822.496,258.401 817.739,255.318 818.051,251.147L816.894,251.163Z" style="fill:rgb(47,46,65);fill-rule:nonzero;"/>
    </g>
    <g transform="matrix(0.780358,0,0,0.780358,-142.172,-22.531)">
        <path d="M677.269,513.223C675.992,513.578 674.673,513.757 673.348,513.757C665.31,513.757 658.696,507.143 658.696,499.105C658.696,493.792 661.586,488.879 666.23,486.298L697.331,451.014L723.636,456.697L686.638,492.936C687.557,494.881 688.033,497.005 688.033,499.157C688.033,505.717 683.602,511.508 677.27,513.223L677.269,513.223Z" style="fill:rgb(255,183,183);fill-rule:nonzero;"/>
    </g>
    <g transform="matrix(0.780358,0,0,0.780358,7.57271,86.3289)">
        <path d="M587.698,247.405L510.183,344.705L486.555,333.857L577.665,192.012L587.698,247.405Z" style="fill:rgb(63,61,86);fill-rule:nonzero;"/>
    </g>
    <g transform="matrix(0.780358,0,0,0.780358,7.57271,86.3289)">
        <path d="M525.848,541.211L507.374,540.921L509.596,603.887L525.845,603.887L525.848,541.211Z" style="fill:rgb(255,183,183);fill-rule:nonzero;"/>
    </g>
    <g transform="matrix(0.780358,0,0,0.780358,-142.172,-22.531)">
        <path d="M721.882,738.082L689.88,738.081C678.693,738.081 669.487,747.287 669.486,758.474L669.486,759.137L721.881,759.139L721.882,738.082Z" style="fill:rgb(47,46,65);fill-rule:nonzero;"/>
    </g>
    <g transform="matrix(0.780358,0,0,0.780358,7.57271,86.3289)">
        <path d="M648.165,524.511L627.984,537.467L668.352,586.032L682.026,577.253L648.165,524.511Z" style="fill:rgb(255,183,183);fill-rule:nonzero;"/>
    </g>
    <g transform="matrix(0.780358,0,0,0.780358,-142.172,-22.531)">
        <path d="M874.54,710.049L847.611,727.338L847.61,727.338C838.196,733.383 835.423,746.103 841.467,755.517L841.825,756.075L885.916,727.768L874.54,710.049Z" style="fill:rgb(47,46,65);fill-rule:nonzero;"/>
    </g>
    <g transform="matrix(0.780358,0,0,0.780358,-142.172,-22.531)">
        <path d="M847.247,471.74C847.247,471.74 802.407,322.813 787.997,320.8C773.587,318.788 750.369,359.013 750.369,359.013C720.266,397.421 689.225,521.834 689.225,521.834C689.225,521.834 740.972,525.072 778.798,545.198C816.625,565.323 861.266,544.179 861.266,544.179L847.247,471.74Z" style="fill:rgb(63,61,86);fill-rule:nonzero;"/>
    </g>
    <g transform="matrix(0.780358,0,0,0.780358,-142.172,-22.531)">
        <path d="M847.247,471.74C847.247,471.74 802.407,322.813 787.997,320.8C773.587,318.788 756.266,359.421 756.266,359.421C741.266,421.421 689.225,521.834 689.225,521.834C689.225,521.834 740.972,525.072 778.798,545.198C816.625,565.323 861.266,544.179 861.266,544.179L847.247,471.74Z" style="fill-opacity:0.1;fill-rule:nonzero;"/>
    </g>
    <g transform="matrix(0.780358,0,0,0.780358,7.57271,86.3289)">
        <path d="M618.567,287.682L618.567,362.517L627.374,470.921L671.374,552.921L650.374,567.921L590.374,489.921L566.643,412.472L529.374,583.921L501.374,581.921L520.82,344.21L557.721,277.3L618.567,287.682Z" style="fill:rgb(47,46,65);fill-rule:nonzero;"/>
    </g>
    <g transform="matrix(0.780358,0,0,0.780358,-142.172,-22.531)">
        <path d="M765.25,354.8C751.25,368.8 764.25,383.8 764.25,383.8L748.25,419.8L811.25,436.8L833.266,338.421L818.266,322.421C788.266,321.421 788.25,320.8 788.25,320.8C782.994,325.944 765.25,354.8 765.25,354.8Z" style="fill:rgb(108,99,255);fill-rule:nonzero;"/>
    </g>
    <g transform="matrix(0.780358,0,0,0.780358,-142.172,-22.531)">
        <path d="M835.803,328.23C831.18,324.817 825.583,322.975 819.837,322.975C811.201,322.975 803.074,327.136 798.026,334.143C782.188,356.195 767.543,391.804 787.721,436.214C820.12,507.524 848.314,544.029 859.776,544.025C860.277,544.029 860.774,543.951 861.249,543.793C868.305,541.4 878.505,529.461 880.352,518.941C881.013,515.175 880.856,509.93 876.353,506.329C863.417,495.982 840.195,463.767 832.951,421.365C828.947,397.935 836.711,376.593 843.929,362.815C850.203,351.083 846.869,336.369 836.151,328.486L835.803,328.23Z" style="fill:rgb(63,61,86);fill-rule:nonzero;"/>
    </g>
    <g transform="matrix(0.684728,-0.374306,0.374306,0.684728,-170.44,304.934)">
        <circle cx="803.14" cy="280.711" r="26.5" style="fill:rgb(255,183,183);"/>
    </g>
    <g transform="matrix(0.780358,0,0,0.780358,-142.172,-22.531)">
        <path d="M765.872,278.707L804.138,278.707L804.53,273.213L806.492,278.707L812.384,278.707L813.162,267.819L817.05,278.707L828.451,278.707L828.451,278.168C828.434,262.489 815.538,249.593 799.859,249.575L794.464,249.575C778.786,249.593 765.89,262.489 765.872,278.168L765.872,278.707Z" style="fill:rgb(47,46,65);fill-rule:nonzero;"/>
    </g>
    <g transform="matrix(0.780358,0,0,0.780358,-142.172,-22.531)">
        <path d="M822.67,298.454L839,293.156L839,253.5L808.156,253.5L808.919,254.262C819.544,264.873 831.36,302.519 822.67,298.454Z" style="fill:rgb(47,46,65);fill-rule:nonzero;"/>
    </g>
</svg>
