<?xml version="1.0" encoding="UTF-8" standalone="no"?>
<!DOCTYPE svg PUBLIC "-//W3C//DTD SVG 1.1//EN" "http://www.w3.org/Graphics/SVG/1.1/DTD/svg11.dtd">
<svg width="100%" height="100%" viewBox="0 0 550 540" version="1.1" xmlns="http://www.w3.org/2000/svg" xmlns:xlink="http://www.w3.org/1999/xlink" xml:space="preserve" xmlns:serif="http://www.serif.com/" style="fill-rule:evenodd;clip-rule:evenodd;stroke-linejoin:round;stroke-miterlimit:2;">
    <g transform="matrix(0.641037,0,0,0.654774,-109.818,-81.5987)">
        <path d="M294.898,748.847C294.888,748.877 294.888,748.917 294.878,748.947L230.068,748.947C228.848,748.177 227.648,747.377 226.468,746.567C219.181,741.63 212.452,735.916 206.398,729.527C199.458,722.133 193.725,713.693 189.408,704.517C180.858,686.277 178.228,665.527 184.848,646.777C184.848,646.777 184.848,646.777 184.848,646.777C184.848,646.772 184.853,646.767 184.858,646.767C184.858,646.767 184.858,646.767 184.858,646.767C185.018,646.297 185.198,645.817 185.378,645.337C185.648,645.807 185.908,646.267 186.188,646.727L186.198,646.737C189.914,652.989 194.128,658.932 198.798,664.507L198.798,664.517C199.158,664.947 199.518,665.377 199.888,665.797C199.888,665.797 199.888,665.797 199.888,665.797C199.888,665.803 199.893,665.807 199.898,665.807C199.898,665.807 199.898,665.807 199.898,665.807C211.239,679.065 224.941,690.106 240.308,698.367C240.358,698.397 240.398,698.417 240.448,698.447C240.499,698.478 240.553,698.505 240.608,698.527C240.618,698.537 240.628,698.537 240.638,698.547C244.048,700.387 247.548,702.067 251.108,703.587L251.108,703.597C253.908,704.807 256.758,705.907 259.628,706.927C265.748,709.077 272.348,711.037 278.208,713.867C283.908,716.617 288.928,720.187 292.198,725.557C292.448,725.997 292.698,726.427 292.928,726.867L291.018,740.087L294.828,740.067L294.468,746.567L294.368,748.447L294.898,748.847Z" style="fill:rgb(240,240,240);fill-rule:nonzero;"/>
    </g>
    <g transform="matrix(0.641037,0,0,0.654774,-109.818,-81.5987)">
        <path d="M278.898,748.947L277.528,748.947C277.398,748.147 277.268,747.357 277.118,746.567C276.73,744.405 276.202,742.271 275.538,740.177C275.238,739.237 274.898,738.317 274.508,737.407C272.298,732.227 268.498,727.677 262.878,726.157C261.242,725.723 259.56,725.485 257.868,725.447C254.518,725.307 251.118,725.737 247.788,725.917C246.968,725.957 246.138,725.987 245.338,725.977L245.318,725.977C240.988,726.049 236.692,725.182 232.728,723.437C227.832,721.093 223.374,717.927 219.548,714.077C217.045,711.68 214.665,709.157 212.418,706.517L212.418,706.507C212.118,706.177 211.828,705.837 211.538,705.487C206.244,699.124 201.616,692.235 197.728,684.927C195.746,681.234 193.967,677.435 192.398,673.547C192.377,673.513 192.361,673.476 192.348,673.437C188.839,664.866 186.323,655.921 184.848,646.777C184.848,646.777 184.848,646.777 184.848,646.777C184.848,646.772 184.853,646.767 184.858,646.767C184.858,646.767 184.858,646.767 184.858,646.767C184.778,646.357 184.718,645.937 184.658,645.527C184.528,644.677 185.878,644.637 185.998,645.487C186.058,645.907 186.118,646.307 186.188,646.727L186.198,646.737C187.617,655.492 189.998,664.064 193.298,672.297L193.298,672.307C193.468,672.727 193.638,673.137 193.808,673.547C198.502,684.933 204.928,695.525 212.858,704.947L212.868,704.967C212.948,705.067 213.038,705.157 213.128,705.257C213.136,705.265 213.14,705.276 213.138,705.287C213.148,705.277 213.148,705.287 213.148,705.287C214.998,707.477 216.938,709.577 218.958,711.617C222.693,715.564 227.026,718.898 231.798,721.497C235.783,723.538 240.192,724.614 244.668,724.637C245.118,724.637 245.568,724.647 246.018,724.637C246.378,724.637 246.738,724.627 247.098,724.607C250.488,724.447 253.928,724.017 257.338,724.077C258.889,724.107 260.434,724.268 261.958,724.557C267.018,725.642 271.38,728.839 273.938,733.337C275.21,735.487 276.224,737.78 276.958,740.167C277.208,740.947 277.418,741.737 277.628,742.537L277.628,742.547C277.948,743.827 278.228,745.127 278.468,746.437C278.48,746.48 278.486,746.523 278.488,746.567C278.638,747.357 278.768,748.157 278.898,748.947Z" style="fill:white;fill-rule:nonzero;"/>
    </g>
    <g transform="matrix(0.641037,0,0,0.654774,-109.818,-81.5987)">
        <path d="M212.931,706.142C205.882,711.392 195.968,710.756 189.648,704.648C189.028,704.045 189.936,703.053 190.557,703.657C196.433,709.358 205.681,709.932 212.218,705.003C212.909,704.483 213.619,705.625 212.931,706.142Z" style="fill:white;fill-rule:nonzero;"/>
    </g>
    <g transform="matrix(0.641037,0,0,0.654774,-109.818,-81.5987)">
        <path d="M244.612,725.05C245.953,716.42 243.991,707.593 239.119,700.344C238.635,699.626 239.775,698.914 240.258,699.631C245.314,707.184 247.337,716.373 245.922,725.351C245.786,726.207 244.477,725.901 244.612,725.05L244.612,725.05Z" style="fill:white;fill-rule:nonzero;"/>
    </g>
    <g transform="matrix(0.641037,0,0,0.654774,-109.818,-81.5987)">
        <path d="M192.936,672.486C196.045,671.043 198.225,668.125 198.729,664.734C198.854,663.877 200.163,664.183 200.039,665.035C199.465,668.777 197.068,672 193.649,673.625C193.334,673.809 192.926,673.715 192.723,673.412C192.529,673.099 192.625,672.683 192.936,672.486L192.936,672.486Z" style="fill:white;fill-rule:nonzero;"/>
    </g>
    <g transform="matrix(0.641037,0,0,0.654774,-109.818,-81.5987)">
        <path d="M304.678,704.957L304.128,710.027L295.378,709.897L294.058,719.037L293.828,720.607L293.828,720.617L292.928,726.867L291.018,740.087L294.828,740.067L294.468,746.567L294.368,748.447L294.898,748.847L295.018,748.947L295.058,748.977C294.948,749.197 294.828,749.417 294.708,749.647C294.778,749.407 294.828,749.187 294.878,748.947L269.558,748.947C269.088,748.157 268.628,747.367 268.178,746.567C264.271,739.767 260.826,732.711 257.868,725.447C257.688,724.997 257.498,724.547 257.338,724.087L257.338,724.077C254.708,717.431 252.624,710.582 251.108,703.597L251.108,703.587C250.287,699.762 249.662,695.897 249.238,692.007C248.154,681.954 248.657,671.794 250.728,661.897C250.745,661.848 250.758,661.798 250.768,661.747C254.758,642.857 264.488,625.397 279.898,614.337C280.538,613.857 281.198,613.407 281.868,612.967C281.878,612.957 281.878,612.957 281.888,612.957C281.888,612.957 281.888,612.957 281.888,612.957C281.894,612.957 281.898,612.953 281.898,612.947C281.898,612.947 281.898,612.947 281.898,612.947C282.318,612.677 282.728,612.407 283.148,612.137C283.088,612.677 283.018,613.217 282.968,613.757C282.16,620.981 281.946,628.258 282.328,635.517L282.328,635.537C282.338,636.097 282.368,636.657 282.408,637.227L282.408,637.247C283.498,654.687 287.808,671.776 295.118,687.647C295.13,687.689 295.147,687.729 295.168,687.767C295.188,687.817 295.208,687.857 295.228,687.907C297.963,693.811 301.121,699.509 304.678,704.957Z" style="fill:rgb(240,240,240);fill-rule:nonzero;"/>
    </g>
    <g transform="matrix(0.641037,0,0,0.654774,-109.818,-81.5987)">
        <path d="M283.566,612.63C283.366,612.999 283.158,613.38 282.969,613.757C281.475,616.581 280.101,619.465 278.845,622.411C276.6,627.612 274.733,632.968 273.258,638.438C273.139,638.864 273.021,639.301 272.913,639.735C269.796,651.669 268.549,664.014 269.217,676.33C269.217,676.451 269.226,676.562 269.237,676.682C269.396,679.556 269.671,682.421 270.064,685.276C270.668,690.675 272.118,695.945 274.361,700.893C274.675,701.54 275.007,702.172 275.355,702.782C276.222,704.275 277.228,705.682 278.36,706.984C279.176,707.937 280.056,708.833 280.992,709.667C281.557,710.179 282.14,710.677 282.749,711.151C283.101,711.426 283.462,711.698 283.823,711.971C284.122,712.173 284.412,712.387 284.711,712.59C287.816,714.715 291.164,716.605 294.058,719.04L293.831,720.611C291.01,718.072 287.606,716.151 284.475,714.051C282.513,712.753 280.676,711.275 278.988,709.636C278.767,709.41 278.535,709.186 278.322,708.949C277.18,707.772 276.148,706.492 275.24,705.126C274.778,704.444 274.342,703.738 273.931,702.997C271.445,698.178 269.796,692.972 269.053,687.6C268.497,684.174 268.113,680.721 267.905,677.255C267.868,676.805 267.843,676.363 267.825,675.909C267.434,667.643 267.887,659.358 269.178,651.183C270.807,640.814 273.761,630.697 277.967,621.08C279.168,618.327 280.478,615.616 281.896,612.947C282.077,612.581 282.269,612.224 282.469,611.854C282.876,611.094 283.974,611.87 283.566,612.63Z" style="fill:white;fill-rule:nonzero;"/>
    </g>
    <g transform="matrix(0.641037,0,0,0.654774,-109.818,-81.5987)">
        <path d="M268.543,677.274C259.753,677.222 252.221,670.745 250.852,662.062C250.72,661.208 252.042,660.963 252.174,661.819C253.434,669.908 260.472,675.935 268.659,675.935C269.524,675.936 269.403,677.275 268.543,677.274L268.543,677.274Z" style="fill:white;fill-rule:nonzero;"/>
    </g>
    <g transform="matrix(0.641037,0,0,0.654774,-109.818,-81.5987)">
        <path d="M282.454,711.444C288.721,705.361 292.469,697.132 292.943,688.411C292.989,687.547 294.328,687.664 294.282,688.527C293.771,697.602 289.854,706.157 283.319,712.473C282.695,713.075 281.834,712.043 282.454,711.444L282.454,711.444Z" style="fill:white;fill-rule:nonzero;"/>
    </g>
    <g transform="matrix(0.641037,0,0,0.654774,-109.818,-81.5987)">
        <path d="M272.841,638.363C276.192,639.082 279.69,638.065 282.134,635.661C282.749,635.051 283.61,636.084 282.998,636.69C280.287,639.332 276.433,640.462 272.724,639.702C272.363,639.658 272.093,639.338 272.113,638.974C272.147,638.607 272.474,638.333 272.841,638.363L272.841,638.363Z" style="fill:white;fill-rule:nonzero;"/>
    </g>
    <g transform="matrix(0.641037,0,0,0.654774,-109.818,-81.5987)">
        <path d="M479.758,749.754L479.758,749.761C479.758,750.412 479.223,750.947 478.572,750.947C478.571,750.947 478.569,750.947 478.568,750.947L198.278,750.947C197.625,750.947 197.088,750.41 197.088,749.757C197.088,749.104 197.625,748.567 198.278,748.567L478.568,748.567C478.569,748.567 478.57,748.567 478.572,748.567C479.223,748.567 479.758,749.103 479.758,749.754Z" style="fill:rgb(204,204,204);fill-rule:nonzero;"/>
    </g>
    <g transform="matrix(0.641037,0,0,0.654774,-109.818,-81.5987)">
        <path d="M964.83,259.971L783.614,259.971C783.611,259.971 783.609,259.971 783.606,259.971C780.364,259.971 777.696,257.303 777.696,254.061C777.696,250.819 780.364,248.151 783.606,248.151C783.609,248.151 783.611,248.151 783.614,248.151L964.83,248.151C964.833,248.151 964.835,248.151 964.838,248.151C968.08,248.151 970.748,250.819 970.748,254.061C970.748,257.303 968.08,259.971 964.838,259.971C964.835,259.971 964.833,259.971 964.83,259.971Z" style="fill:rgb(255,165,59);fill-rule:nonzero;"/>
    </g>
    <g transform="matrix(0.641037,0,0,0.654774,-109.818,-81.5987)">
        <path d="M964.83,283.325L783.614,283.325C780.375,283.32 777.711,280.654 777.711,277.414C777.711,274.175 780.375,271.508 783.614,271.504L964.83,271.504C968.07,271.508 970.733,274.175 970.733,277.414C970.733,280.654 968.07,283.32 964.83,283.325Z" style="fill:rgb(255,165,59);fill-rule:nonzero;"/>
    </g>
    <g transform="matrix(0.641037,0,0,0.654774,-109.818,-81.5987)">
        <path d="M862.167,306.678L783.614,306.678C780.375,306.674 777.711,304.007 777.711,300.768C777.711,297.528 780.375,294.862 783.614,294.857L862.167,294.857C862.169,294.857 862.172,294.857 862.175,294.857C865.417,294.857 868.085,297.526 868.085,300.768C868.085,304.01 865.417,306.678 862.175,306.678C862.172,306.678 862.169,306.678 862.167,306.678Z" style="fill:rgb(255,165,59);fill-rule:nonzero;"/>
    </g>
    <g transform="matrix(0.641037,0,0,0.654774,-109.818,-81.5987)">
        <path d="M964.83,392.785L783.614,392.785C780.372,392.785 777.704,390.117 777.704,386.875C777.704,383.633 780.372,380.965 783.614,380.965L964.83,380.965C968.072,380.965 970.74,383.633 970.74,386.875C970.74,390.117 968.072,392.785 964.83,392.785Z" style="fill:rgb(230,230,230);fill-rule:nonzero;"/>
    </g>
    <g transform="matrix(0.641037,0,0,0.654774,-109.818,-81.5987)">
        <path d="M964.83,416.138L783.614,416.138C780.372,416.138 777.704,413.47 777.704,410.228C777.704,406.986 780.372,404.318 783.614,404.318L964.83,404.318C968.073,404.318 970.741,406.986 970.741,410.228C970.741,413.47 968.073,416.138 964.83,416.138Z" style="fill:rgb(230,230,230);fill-rule:nonzero;"/>
    </g>
    <g transform="matrix(0.641037,0,0,0.654774,-109.818,-81.5987)">
        <path d="M862.167,439.492L783.614,439.492C780.372,439.492 777.704,436.824 777.704,433.582C777.704,430.339 780.372,427.671 783.614,427.671L862.167,427.671C862.169,427.671 862.172,427.671 862.175,427.671C865.417,427.671 868.085,430.339 868.085,433.582C868.085,436.824 865.417,439.492 862.175,439.492C862.172,439.492 862.169,439.492 862.167,439.492Z" style="fill:rgb(230,230,230);fill-rule:nonzero;"/>
    </g>
    <g transform="matrix(0.641037,0,0,0.654774,-109.818,-81.5987)">
        <path d="M964.83,532.901L783.614,532.901C780.372,532.901 777.704,530.233 777.704,526.991C777.704,523.749 780.372,521.081 783.614,521.081L964.83,521.081C968.072,521.081 970.74,523.749 970.74,526.991C970.74,530.233 968.072,532.901 964.83,532.901Z" style="fill:rgb(230,230,230);fill-rule:nonzero;"/>
    </g>
    <g transform="matrix(0.641037,0,0,0.654774,-109.818,-81.5987)">
        <path d="M964.83,556.254L783.614,556.254C780.375,556.25 777.711,553.584 777.711,550.344C777.711,547.105 780.375,544.438 783.614,544.434L964.83,544.434C968.07,544.438 970.733,547.105 970.733,550.344C970.733,553.584 968.07,556.25 964.83,556.254Z" style="fill:rgb(230,230,230);fill-rule:nonzero;"/>
    </g>
    <g transform="matrix(0.641037,0,0,0.654774,-109.818,-81.5987)">
        <path d="M862.167,579.608L783.614,579.608C780.372,579.608 777.704,576.94 777.704,573.698C777.704,570.455 780.372,567.787 783.614,567.787L862.167,567.787C862.169,567.787 862.172,567.787 862.175,567.787C865.417,567.787 868.085,570.455 868.085,573.698C868.085,576.94 865.417,579.608 862.175,579.608C862.172,579.608 862.169,579.608 862.167,579.608Z" style="fill:rgb(230,230,230);fill-rule:nonzero;"/>
    </g>
    <g transform="matrix(0.641037,0,0,0.654774,-109.818,-81.5987)">
        <path d="M711.318,457.041L602.222,457.041C596.175,457.034 591.201,452.06 591.194,446.013L591.194,374.444C591.201,368.396 596.175,363.422 602.222,363.416L711.318,363.416C717.366,363.422 722.34,368.396 722.346,374.444L722.346,446.013C722.34,452.06 717.366,457.034 711.318,457.041Z" style="fill:rgb(230,230,230);fill-rule:nonzero;"/>
    </g>
    <g transform="matrix(0.641037,0,0,0.654774,-109.818,-81.5987)">
        <path d="M703.651,372.359L609.893,372.359C604.387,372.364 599.857,376.892 599.848,382.398L599.848,438.056C599.856,443.563 604.386,448.093 609.893,448.1L669.679,448.1C693.814,448.076 713.667,428.224 713.691,404.089L713.691,382.398C713.685,376.893 709.157,372.364 703.651,372.359Z" style="fill:white;fill-rule:nonzero;"/>
    </g>
    <g transform="matrix(0.641037,0,0,0.654774,-109.818,-81.5987)">
        <path d="M677.155,391.175L676.875,391.68C679.369,385.534 677.101,377.959 672.652,373.324C668.202,368.69 662.017,366.571 655.927,365.73C651.405,365.106 646.712,365.124 642.413,366.78C636.188,369.178 631.431,374.73 627.46,380.506C625.644,383.147 623.858,386.159 624.039,389.461C624.207,392.525 626.025,395.125 627.515,397.724C629.004,400.324 630.248,403.549 629.179,406.386C628.542,408.077 627.196,409.295 626.103,410.678C625.011,412.061 624.112,413.93 624.64,415.666C625.116,417.015 626.27,418.017 627.672,418.301C629.009,418.524 630.375,418.491 631.7,418.205L666.416,412.96C673.619,411.872 679,405.616 679,398.331C679,395.828 678.365,393.366 677.155,391.175Z" style="fill:rgb(47,46,65);fill-rule:nonzero;"/>
    </g>
    <g transform="matrix(0.641037,0,0,0.654774,6.29037,15.9973)">
        <circle cx="470.208" cy="246.692" r="16.973" style="fill:rgb(255,185,185);"/>
    </g>
    <g transform="matrix(0.641037,0,0,0.654774,-109.818,-81.5987)">
        <path d="M695.624,439.619C688.102,445.139 679.009,448.112 669.679,448.1L617.596,448.1C617.491,448.016 617.391,447.931 617.286,447.841L622.144,434.287C624.377,429.388 629.15,426.111 634.524,425.785L637.614,425.596L644.983,419.241C644.983,419.241 664.837,418.532 664.542,418.192L676.569,425.426L676.559,425.376L681.286,425.665C686.661,425.99 691.434,429.268 693.667,434.167L695.624,439.619Z" style="fill:rgb(108,99,255);fill-rule:nonzero;"/>
    </g>
    <g transform="matrix(0.641037,0,0,0.654774,-109.818,-81.5987)">
        <path d="M667.432,379.992C666.994,377.674 664.63,376.614 662.605,376.1C656.73,374.601 650.618,374.266 644.615,375.112C640.238,375.737 635.758,377.113 632.582,380.529C630.022,383.405 628.57,387.102 628.49,390.951C628.36,393.253 628.875,395.546 629.975,397.572C630.976,399.489 632.918,400.741 635.077,400.86L635.28,401.569C643.802,400.381 651.718,395.079 656.703,387.219C655.768,390.56 653.906,393.568 651.333,395.896C657.085,393.594 662.087,389.739 665.779,384.762C666.787,383.424 667.765,381.755 667.432,379.992Z" style="fill:rgb(47,46,65);fill-rule:nonzero;"/>
    </g>
    <g transform="matrix(0.641037,0,0,0.654774,-109.818,-81.5987)">
        <path d="M711.318,324.227L602.222,324.227C596.175,324.22 591.201,319.246 591.194,313.199L591.194,241.63C591.201,235.583 596.175,230.609 602.222,230.602L711.318,230.602C717.366,230.609 722.34,235.583 722.346,241.63L722.346,313.199C722.34,319.246 717.366,324.22 711.318,324.227Z" style="fill:rgb(204,204,204);fill-rule:nonzero;"/>
    </g>
    <g transform="matrix(0.641037,0,0,0.654774,-109.818,-81.5987)">
        <path d="M703.651,239.545L609.893,239.545C604.387,239.552 599.858,244.079 599.848,249.584L599.848,305.242C599.856,310.75 604.386,315.279 609.893,315.287L669.679,315.287C693.816,315.267 713.671,295.412 713.691,271.275L713.691,249.584C713.685,244.079 709.157,239.551 703.651,239.545Z" style="fill:white;fill-rule:nonzero;"/>
    </g>
    <g transform="matrix(0.641037,0,0,0.654774,6.29037,15.9973)">
        <circle cx="453.111" cy="93.294" r="7.995" style="fill:rgb(47,46,65);"/>
    </g>
    <g transform="matrix(0.641037,0,0,0.654774,6.29037,15.9973)">
        <circle cx="465.904" cy="111.417" r="20.255" style="fill:rgb(47,46,65);"/>
    </g>
    <g transform="matrix(0.641037,0,0,0.654774,6.29037,15.9973)">
        <circle cx="467.58" cy="115.208" r="16.46" style="fill:rgb(158,97,106);"/>
    </g>
    <g transform="matrix(0.641037,0,0,0.654774,-109.818,-81.5987)">
        <path d="M659.883,247.482C656.927,245.68 653.531,244.727 650.069,244.727C639.726,244.727 631.215,253.238 631.215,263.58C631.215,263.699 631.216,263.818 631.219,263.937C639.606,266.042 648.417,267.654 657.361,264.44L659.473,259.271L660.718,264.444C663.442,265.558 666.173,266.5 668.904,264.433C669.13,257.588 665.687,251.118 659.883,247.482Z" style="fill:rgb(47,46,65);fill-rule:nonzero;"/>
    </g>
    <g transform="matrix(0.641037,0,0,0.654774,-109.818,-81.5987)">
        <path d="M626.792,220.642C621.075,218.202 614.441,219.224 609.723,223.272C605.126,227.42 602.906,233.61 603.82,239.734C604.726,245.872 608.458,251.158 611.898,256.322C615.337,261.486 618.698,267.145 618.694,273.349C618.688,282.593 611.091,290.2 601.848,290.218C607.093,292.476 612.568,294.779 618.272,294.511C623.977,294.243 629.955,290.576 630.886,284.942C631.556,280.882 629.565,276.924 627.903,273.159C625.198,267.025 623.242,260.587 622.079,253.984C621.524,250.833 621.163,247.52 622.19,244.49C623.865,239.893 628.38,236.91 633.265,237.174L635.15,235.478C635.81,229.272 632.442,223.294 626.792,220.642Z" style="fill:rgb(47,46,65);fill-rule:nonzero;"/>
    </g>
    <g transform="matrix(0.641037,0,0,0.654774,-109.818,-81.5987)">
        <path d="M692.244,309.046C685.431,313.14 677.628,315.298 669.679,315.287L613.258,315.287L613.168,315.212L618.025,301.653C620.259,296.756 625.032,293.48 630.406,293.156L633.496,292.967L640.864,286.611C640.864,286.611 660.718,285.898 660.424,285.558L672.45,292.792L672.44,292.747L677.168,293.036C682.542,293.357 687.317,296.633 689.548,301.533L692.244,309.046Z" style="fill:rgb(108,99,255);fill-rule:nonzero;"/>
    </g>
    <g transform="matrix(0.641037,0,0,0.654774,-109.818,-81.5987)">
        <path d="M711.318,597.157L602.222,597.157C596.175,597.15 591.201,592.176 591.194,586.129L591.194,514.56C591.201,508.513 596.175,503.539 602.222,503.532L711.318,503.532C717.366,503.539 722.34,508.512 722.346,514.56L722.346,586.129C722.34,592.176 717.366,597.15 711.318,597.157Z" style="fill:rgb(230,230,230);fill-rule:nonzero;"/>
    </g>
    <g transform="matrix(0.641037,0,0,0.654774,-109.818,-81.5987)">
        <path d="M703.651,512.475L609.893,512.475C604.387,512.48 599.857,517.008 599.848,522.514L599.848,578.172C599.856,583.68 604.386,588.209 609.893,588.217L669.679,588.217C693.814,588.193 713.667,568.34 713.691,544.205L713.691,522.514C713.685,517.009 709.157,512.481 703.651,512.475Z" style="fill:white;fill-rule:nonzero;"/>
    </g>
    <g transform="matrix(0.641037,0,0,0.654774,6.29037,15.9973)">
        <circle cx="475.564" cy="376.246" r="22.583" style="fill:rgb(47,46,65);"/>
    </g>
    <g transform="matrix(0.641037,0,0,0.654774,6.29037,15.9973)">
        <circle cx="475.573" cy="381.621" r="20.174" style="fill:rgb(255,184,184);"/>
    </g>
    <g transform="matrix(0.641037,0,0,0.654774,-109.818,-81.5987)">
        <path d="M697.052,578.647C689.28,584.85 679.623,588.226 669.679,588.217L619.368,588.217L624.141,574.902C626.374,570.004 631.147,566.726 636.521,566.401L639.611,566.211L646.98,559.856C646.98,559.856 666.834,559.147 666.539,558.807L678.565,566.041L678.555,565.991L683.283,566.281C688.658,566.605 693.431,569.883 695.664,574.783L697.052,578.647Z" style="fill:rgb(108,99,255);fill-rule:nonzero;"/>
    </g>
    <g transform="matrix(0.641037,0,0,0.654774,-109.818,-81.5987)">
        <path d="M677.982,523.599C678.124,522.093 678.189,520.58 678.177,519.068C678.259,516.076 677.711,513.1 676.568,510.334C675.162,507.272 672.654,504.849 669.546,503.55C666.465,502.307 663.018,502.31 659.939,503.558C657.23,501.693 654.089,500.55 650.815,500.236C647.489,499.969 644.235,501.35 642.116,503.928C641.669,504.629 641.16,505.29 640.597,505.902C638.985,507.395 636.535,507.18 634.393,506.874C635.354,507.698 636.315,508.522 637.276,509.345C636.113,509.649 634.95,509.953 633.787,510.257C635.144,511.08 636.501,511.903 637.859,512.726C633.918,515.092 632.127,520.254 632.6,524.942C633.048,529.381 635.191,533.44 637.753,537.048C638.775,534.892 638.554,532.311 638.538,529.882C638.528,529.094 638.576,528.307 638.681,527.526C647.339,529.601 656.386,530.933 665.56,527.637L667.401,523.131C667.659,523.158 667.918,523.183 668.176,523.21L669.242,527.641C671.661,528.63 674.084,529.494 676.508,528.586C676.626,529.27 676.697,529.969 676.752,530.64C676.96,529.837 677.14,529.028 677.303,528.216C677.623,528.044 677.93,527.848 678.221,527.63C678.279,526.281 678.199,524.931 677.982,523.599Z" style="fill:rgb(47,46,65);fill-rule:nonzero;"/>
    </g>
    <g transform="matrix(0.641037,0,0,0.654774,-109.818,-81.5987)">
        <path d="M1016.24,169.828L545.696,169.828C544.251,169.826 543.062,168.637 543.06,167.192L543.06,151.689C543.062,150.243 544.251,149.054 545.696,149.053L1016.24,149.053C1017.68,149.054 1018.87,150.243 1018.88,151.689L1018.88,167.192C1018.87,168.637 1017.68,169.826 1016.24,169.828Z" style="fill:rgb(228,228,228);fill-rule:nonzero;"/>
    </g>
    <g id="e64f360c-0cb0-4309-94f7-c4048c501294" transform="matrix(0.641037,0,0,0.654774,6.29037,15.9973)">
        <circle cx="377.231" cy="9.631" r="3.742" style="fill:white;"/>
    </g>
    <g id="b16bad97-612f-4358-a052-4ed2c41908d6" transform="matrix(0.641037,0,0,0.654774,6.29037,15.9973)">
        <circle cx="391.434" cy="9.631" r="3.742" style="fill:white;"/>
    </g>
    <g id="b150c0f4-fbac-4380-a463-ed2b3702c90d" transform="matrix(0.641037,0,0,0.654774,6.29037,15.9973)">
        <circle cx="405.638" cy="9.631" r="3.742" style="fill:white;"/>
    </g>
    <g transform="matrix(0.641037,0,0,0.654774,-109.818,-81.5987)">
        <path d="M1002.32,156.109L985.967,156.109C985.303,156.109 984.756,155.562 984.756,154.897C984.756,154.232 985.303,153.686 985.967,153.686L1002.32,153.686C1002.99,153.686 1003.53,154.232 1003.53,154.897C1003.53,155.562 1002.99,156.109 1002.32,156.109Z" style="fill:white;fill-rule:nonzero;"/>
    </g>
    <g transform="matrix(0.641037,0,0,0.654774,-109.818,-81.5987)">
        <path d="M1002.32,160.652L985.967,160.652C985.303,160.652 984.756,160.105 984.756,159.44C984.756,158.776 985.303,158.229 985.967,158.229L1002.32,158.229C1002.99,158.229 1003.53,158.776 1003.53,159.44C1003.53,160.105 1002.99,160.652 1002.32,160.652Z" style="fill:white;fill-rule:nonzero;"/>
    </g>
    <g transform="matrix(0.641037,0,0,0.654774,-109.818,-81.5987)">
        <path d="M1002.32,165.195L985.967,165.195C985.303,165.195 984.756,164.648 984.756,163.984C984.756,163.319 985.303,162.772 985.967,162.772L1002.32,162.772C1002.99,162.772 1003.53,163.319 1003.53,163.984C1003.53,164.648 1002.99,165.195 1002.32,165.195Z" style="fill:white;fill-rule:nonzero;"/>
    </g>
    <g transform="matrix(0.641037,0,0,0.654774,6.29037,15.9973)">
        <circle cx="739.056" cy="152.467" r="6.767" style="fill:rgb(108,99,255);"/>
    </g>
    <g transform="matrix(0.641037,0,0,0.654774,6.29037,15.9973)">
        <circle cx="761.033" cy="152.467" r="6.767" style="fill:rgb(108,99,255);"/>
    </g>
    <g transform="matrix(0.641037,0,0,0.654774,6.29037,15.9973)">
        <circle cx="783.009" cy="152.467" r="6.767" style="fill:rgb(108,99,255);"/>
    </g>
    <g transform="matrix(0.641037,0,0,0.654774,6.29037,15.9973)">
        <circle cx="739.056" cy="284.324" r="6.767" style="fill:rgb(230,230,230);"/>
    </g>
    <g transform="matrix(0.641037,0,0,0.654774,6.29037,15.9973)">
        <circle cx="761.033" cy="284.324" r="6.767" style="fill:rgb(230,230,230);"/>
    </g>
    <g transform="matrix(0.641037,0,0,0.654774,6.29037,15.9973)">
        <circle cx="783.009" cy="284.324" r="6.767" style="fill:rgb(230,230,230);"/>
    </g>
    <g transform="matrix(0.641037,0,0,0.654774,6.29037,15.9973)">
        <circle cx="739.056" cy="424.688" r="6.767" style="fill:rgb(230,230,230);"/>
    </g>
    <g transform="matrix(0.641037,0,0,0.654774,6.29037,15.9973)">
        <circle cx="761.033" cy="424.688" r="6.767" style="fill:rgb(230,230,230);"/>
    </g>
    <g transform="matrix(0.641037,0,0,0.654774,6.29037,15.9973)">
        <circle cx="783.009" cy="424.688" r="6.767" style="fill:rgb(230,230,230);"/>
    </g>
    <g transform="matrix(0.641037,0,0,0.654774,-109.818,-81.5987)">
        <path d="M727.561,307.358L692.679,285.272C691.978,284.828 691.164,284.592 690.333,284.592C687.928,284.592 685.948,286.572 685.948,288.978C685.948,288.991 685.948,289.004 685.948,289.017L686.291,327.098C686.313,329.489 688.285,331.444 690.676,331.444C692.451,331.444 694.058,330.367 694.732,328.726L699.271,317.687L711.925,342.634C712.777,344.307 714.503,345.365 716.381,345.365C719.123,345.365 721.381,343.108 721.381,340.365C721.381,339.582 721.197,338.81 720.843,338.111L707.901,312.596L724.487,315.388C724.728,315.428 724.972,315.449 725.215,315.449C727.621,315.449 729.601,313.469 729.601,311.063C729.601,309.562 728.83,308.161 727.561,307.358Z" style="fill:rgb(63,61,86);fill-rule:nonzero;"/>
    </g>
    <g transform="matrix(0.641037,0,0,0.654774,-109.818,-81.5987)">
        <path d="M285.902,544.462C287.355,542.882 288.161,540.812 288.161,538.665C288.161,535.74 286.662,533.009 284.194,531.438L291.214,501.817L276.356,507.246L271.967,534.542C271.274,535.809 270.911,537.231 270.911,538.675C270.911,543.4 274.799,547.288 279.524,547.288C281.952,547.288 284.271,546.261 285.902,544.462L285.902,544.462Z" style="fill:rgb(255,184,184);fill-rule:nonzero;"/>
    </g>
    <g transform="matrix(0.641037,0,0,0.654774,-109.818,-81.5987)">
        <path d="M321.633,420.335L315.67,435.668C315.67,435.668 318.226,451.002 313.967,454.41C309.707,457.817 311.411,457.817 311.411,460.373C311.114,464.078 309.255,467.488 306.3,469.743C302.892,472.299 287.559,524.263 287.559,524.263L272.225,524.263C272.72,520.303 272.72,516.297 272.225,512.337C271.373,506.374 274.78,491.04 276.484,488.485C278.188,485.929 276.484,482.521 276.484,477.41C276.484,472.299 279.892,469.743 279.892,461.225C279.892,452.706 290.114,386.26 289.262,378.593C288.41,370.926 297.781,364.111 297.781,364.111L306.3,364.111L321.633,420.335Z" style="fill:rgb(230,230,230);fill-rule:nonzero;"/>
    </g>
    <g transform="matrix(0.641037,0,0,0.654774,6.29037,15.9973)">
        <path d="M109.39,581.98L120.427,581.98L125.68,539.406L109.389,539.406L109.39,581.98Z" style="fill:rgb(255,182,182);fill-rule:nonzero;"/>
    </g>
    <g transform="matrix(0.641037,0,0,0.654774,-109.818,-81.5987)">
        <path d="M286.913,723.473L304.547,722.421L304.547,729.976L321.312,741.554C322.587,742.435 323.35,743.889 323.35,745.438C323.35,748.027 321.219,750.157 318.63,750.157L297.636,750.157L294.017,742.684L292.605,750.157L284.689,750.157L286.913,723.473Z" style="fill:rgb(47,46,65);fill-rule:nonzero;"/>
    </g>
    <g transform="matrix(0.641037,0,0,0.654774,6.29037,15.9973)">
        <path d="M171.39,581.98L182.427,581.98L187.68,539.406L171.389,539.406L171.39,581.98Z" style="fill:rgb(255,182,182);fill-rule:nonzero;"/>
    </g>
    <g transform="matrix(0.641037,0,0,0.654774,-109.818,-81.5987)">
        <path d="M348.913,723.473L366.547,722.421L366.547,729.976L383.312,741.554C384.587,742.435 385.35,743.889 385.35,745.438C385.35,748.027 383.219,750.157 380.63,750.157L359.636,750.157L356.017,742.684L354.605,750.157L346.689,750.157L348.913,723.473Z" style="fill:rgb(47,46,65);fill-rule:nonzero;"/>
    </g>
    <g transform="matrix(0.641037,0,0,0.654774,-109.818,-81.5987)">
        <path d="M285.752,694.319L285.872,694.319L291.995,625.096C289.208,619.719 289.297,613.288 292.233,607.991L292.537,607.441L291.749,603.788C290.737,599.096 291.201,594.203 293.078,589.785L291.059,525.213C283.984,479.362 317.7,449.459 317.7,449.459L368.209,449.459L379.052,486.715C383.124,526.381 395.856,568.102 394.169,606.556C392.886,635.808 378.459,662.062 373.545,690.549L373.855,690.706C374.971,691.091 375.45,692.638 374.925,694.161C374.399,695.684 373.068,696.606 371.951,696.221L345.277,695.293C344.16,694.908 343.681,693.361 344.207,691.838C344.733,690.315 346.064,689.393 347.181,689.778L348.994,690.696L362.126,620.898L362.556,608.697L361.671,594.855L340.583,535.594L325.106,612.157L309.298,695.09C309.907,695.641 310.254,696.425 310.254,697.245C310.254,698.841 308.942,700.153 307.346,700.153C307.343,700.153 307.34,700.153 307.337,700.153L285.752,700.153C284.152,700.153 282.835,698.837 282.835,697.236C282.835,695.636 284.152,694.319 285.752,694.319Z" style="fill:rgb(47,46,65);fill-rule:nonzero;"/>
    </g>
    <g transform="matrix(0.641037,0,0,0.654774,-109.818,-81.5987)">
        <path d="M281.567,480.601C279.909,480.601 278.967,480.276 278.602,479.578C278.067,478.555 278.996,477.218 280.071,475.669C280.869,474.658 281.498,473.525 281.934,472.313C282.577,469.741 286.918,404.766 284.321,391.784C283.721,388.78 284.238,384.929 285.857,380.339C290.282,367.804 296.321,363.952 308.352,356.278C309.328,355.655 310.345,355.004 311.402,354.326C312.77,353.447 312.694,350.533 312.613,347.447C312.524,344.017 312.431,340.47 314.111,338.253L314.221,338.109L314.397,338.068C318.461,337.128 332.129,335.384 340.224,338.08L340.336,338.119L340.419,338.202C342.342,340.124 342.518,343.849 342.687,347.451C342.826,350.408 342.957,353.2 344.045,354.412C352.362,363.683 361.794,363.502 361.89,363.5L362.357,363.487L362.404,363.952C366.022,400.749 371.854,456.289 373.093,458.475C373.225,458.679 373.233,458.94 373.113,459.151C371.294,462.55 287.817,480.601 281.567,480.601Z" style="fill:rgb(230,230,230);fill-rule:nonzero;"/>
    </g>
    <g transform="matrix(0.641037,0,0,0.654774,6.29037,15.9973)">
        <circle cx="154.765" cy="153.931" r="24.667" style="fill:rgb(255,184,184);"/>
    </g>
    <g transform="matrix(0.641037,0,0,0.654774,-109.818,-81.5987)">
        <path d="M268.128,291.971C272.298,287.107 274.281,280.655 277.615,275.132C280.949,269.609 286.751,264.666 292.881,265.951C297.106,266.837 300.372,270.565 302.025,274.722C303.678,278.879 303.988,283.463 304.277,287.954C304.175,278.725 310.255,269.778 318.631,266.833C327.006,263.889 337.03,267.173 342.293,274.588C347.023,270.203 354.368,270.049 359.279,274.231C363.986,278.439 365.028,286.447 361.566,291.813C357.986,297.191 350.886,299.084 345.105,296.203L343.16,297.992C344.195,301.923 342.248,306.072 338.562,307.786C335.668,308.955 331.582,308.761 330.499,311.798C329.742,313.92 331.157,316.185 332.661,317.816C334.166,319.447 335.952,321.131 336.133,323.388C336.406,326.793 332.888,329.178 329.689,329.896C321.684,331.497 313.465,328.066 308.973,321.25C308.888,321.119 308.794,320.988 308.694,320.856C303.656,314.413 301.487,306.171 302.703,298.083C302.953,296.51 302.701,295.339 301.617,294.967C296.929,293.357 283.794,296.736 279.819,299.791C275.844,302.845 272.661,306.888 268.832,310.14C265.003,313.391 260.123,315.9 255.262,315.014C251.368,314.305 248.056,311.478 245.828,308.068C243.727,304.54 242.157,300.721 241.169,296.734C249.779,301.708 261.563,299.626 268.128,291.971Z" style="fill:rgb(47,46,65);fill-rule:nonzero;"/>
    </g>
    <g transform="matrix(0.641037,0,0,0.654774,-109.818,-81.5987)">
        <path d="M375.436,544.462C373.983,542.882 373.176,540.812 373.176,538.665C373.176,535.74 374.675,533.009 377.144,531.438L370.123,501.817L384.982,507.246L389.371,534.542C390.064,535.809 390.427,537.231 390.427,538.675C390.427,543.4 386.539,547.288 381.814,547.288C379.386,547.288 377.067,546.261 375.436,544.462L375.436,544.462Z" style="fill:rgb(255,184,184);fill-rule:nonzero;"/>
    </g>
    <g transform="matrix(0.641037,0,0,0.654774,-109.818,-81.5987)">
        <path d="M339.704,420.335L345.668,435.668C345.668,435.668 343.112,451.002 347.371,454.41C351.631,457.817 349.927,457.817 349.927,460.373C350.223,464.078 352.083,467.488 355.038,469.743C358.446,472.299 373.779,524.263 373.779,524.263L389.113,524.263C388.618,520.303 388.618,516.297 389.113,512.337C389.965,506.374 386.557,491.04 384.854,488.485C383.15,485.929 384.854,482.521 384.854,477.41C384.854,472.299 381.446,469.743 381.446,461.225C381.446,452.706 371.224,386.26 372.076,378.593C372.927,370.926 363.557,364.111 363.557,364.111L355.038,364.111L339.704,420.335Z" style="fill:rgb(230,230,230);fill-rule:nonzero;"/>
    </g>
</svg>
